<?xml version="1.0" encoding="UTF-8"?>
<svg xmlns="http://www.w3.org/2000/svg"
     height="1520"
     width="600"
     viewBox="-150, -1570, 750, 1845">
   <line x1="0"
         x2="550"
         y1="-35"
         y2="-35"
         stroke="black"
         stroke-dasharray="2"/>
   <text x="-5" y="-35" text-anchor="end" dominant-baseline="middle">1915</text>
   <rect x=" 0"
         y="-30"
         width="750"
         height="20"
         opacity=".5"
         fill="green"/>
   <rect x=" 0"
         y="-30"
         width="500"
         height="20"
         opacity=".5"
         fill="yellow"/>
   <rect x=" 0"
         y="-30"
         width="250"
         height="20"
         opacity=".5"
         fill="red"/>
   <rect x=" 0"
         y="-60"
         width="437.5"
         height="20"
         opacity=".5"
         fill="green"/>
   <rect x=" 0"
         y="-60"
         width="125"
         height="20"
         opacity=".5"
         fill="yellow"/>
   <rect x=" 0"
         y="-60"
         width="62.5"
         height="20"
         opacity=".5"
         fill="red"/>
   <rect x=" 0"
         y="-90"
         width="0"
         height="20"
         opacity=".5"
         fill="green"/>
   <rect x=" 0"
         y="-90"
         width="0"
         height="20"
         opacity=".5"
         fill="yellow"/>
   <rect x=" 0"
         y="-90"
         width="0"
         height="20"
         opacity=".5"
         fill="red"/>
   <rect x=" 0"
         y="-120"
         width="375"
         height="20"
         opacity=".5"
         fill="green"/>
   <rect x=" 0"
         y="-120"
         width="250"
         height="20"
         opacity=".5"
         fill="yellow"/>
   <rect x=" 0"
         y="-120"
         width="125"
         height="20"
         opacity=".5"
         fill="red"/>
   <rect x=" 0"
         y="-150"
         width="1000"
         height="20"
         opacity=".5"
         fill="green"/>
   <rect x=" 0"
         y="-150"
         width="1000"
         height="20"
         opacity=".5"
         fill="yellow"/>
   <rect x=" 0"
         y="-150"
         width="500"
         height="20"
         opacity=".5"
         fill="red"/>
   <rect x=" 0"
         y="-180"
         width="214.28571428571428"
         height="20"
         opacity=".5"
         fill="green"/>
   <rect x=" 0"
         y="-180"
         width="142.85714285714283"
         height="20"
         opacity=".5"
         fill="yellow"/>
   <rect x=" 0"
         y="-180"
         width="71.42857142857142"
         height="20"
         opacity=".5"
         fill="red"/>
   <rect x=" 0"
         y="-210"
         width="0"
         height="20"
         opacity=".5"
         fill="green"/>
   <rect x=" 0"
         y="-210"
         width="0"
         height="20"
         opacity=".5"
         fill="yellow"/>
   <rect x=" 0"
         y="-210"
         width="0"
         height="20"
         opacity=".5"
         fill="red"/>
   <line x1="0"
         x2="550"
         y1="-245"
         y2="-245"
         stroke="black"
         stroke-dasharray="2"/>
   <text x="-5" y="-245" text-anchor="end" dominant-baseline="middle">1916</text>
   <rect x=" 0"
         y="-240"
         width="250"
         height="20"
         opacity=".5"
         fill="green"/>
   <rect x=" 0"
         y="-240"
         width="0"
         height="20"
         opacity=".5"
         fill="yellow"/>
   <rect x=" 0"
         y="-240"
         width="0"
         height="20"
         opacity=".5"
         fill="red"/>
   <rect x=" 0"
         y="-270"
         width="346.15384615384613"
         height="20"
         opacity=".5"
         fill="green"/>
   <rect x=" 0"
         y="-270"
         width="230.76923076923077"
         height="20"
         opacity=".5"
         fill="yellow"/>
   <rect x=" 0"
         y="-270"
         width="115.38461538461539"
         height="20"
         opacity=".5"
         fill="red"/>
   <line x1="0"
         x2="550"
         y1="-305"
         y2="-305"
         stroke="black"
         stroke-dasharray="2"/>
   <text x="-5" y="-305" text-anchor="end" dominant-baseline="middle">1916</text>
   <rect x=" 0"
         y="-300"
         width="500"
         height="20"
         opacity=".5"
         fill="green"/>
   <rect x=" 0"
         y="-300"
         width="0"
         height="20"
         opacity=".5"
         fill="yellow"/>
   <rect x=" 0"
         y="-300"
         width="0"
         height="20"
         opacity=".5"
         fill="red"/>
   <line x1="0"
         x2="550"
         y1="-335"
         y2="-335"
         stroke="black"
         stroke-dasharray="2"/>
   <text x="-5" y="-335" text-anchor="end" dominant-baseline="middle">1916</text>
   <rect x=" 0"
         y="-330"
         width="333.33333333333326"
         height="20"
         opacity=".5"
         fill="green"/>
   <rect x=" 0"
         y="-330"
         width="333.33333333333326"
         height="20"
         opacity=".5"
         fill="yellow"/>
   <rect x=" 0"
         y="-330"
         width="166.66666666666663"
         height="20"
         opacity=".5"
         fill="red"/>
   <rect x=" 0"
         y="-360"
         width="500"
         height="20"
         opacity=".5"
         fill="green"/>
   <rect x=" 0"
         y="-360"
         width="333.33333333333326"
         height="20"
         opacity=".5"
         fill="yellow"/>
   <rect x=" 0"
         y="-360"
         width="166.66666666666663"
         height="20"
         opacity=".5"
         fill="red"/>
   <line x1="0"
         x2="550"
         y1="-395"
         y2="-395"
         stroke="black"
         stroke-dasharray="2"/>
   <text x="-5" y="-395" text-anchor="end" dominant-baseline="middle">1916</text>
   <rect x=" 0"
         y="-390"
         width="166.66666666666663"
         height="20"
         opacity=".5"
         fill="green"/>
   <rect x=" 0"
         y="-390"
         width="0"
         height="20"
         opacity=".5"
         fill="yellow"/>
   <rect x=" 0"
         y="-390"
         width="0"
         height="20"
         opacity=".5"
         fill="red"/>
   <rect x=" 0"
         y="-420"
         width="500"
         height="20"
         opacity=".5"
         fill="green"/>
   <rect x=" 0"
         y="-420"
         width="250"
         height="20"
         opacity=".5"
         fill="yellow"/>
   <rect x=" 0"
         y="-420"
         width="125"
         height="20"
         opacity=".5"
         fill="red"/>
   <line x1="0"
         x2="550"
         y1="-455"
         y2="-455"
         stroke="black"
         stroke-dasharray="2"/>
   <text x="-5" y="-455" text-anchor="end" dominant-baseline="middle">1916</text>
   <rect x=" 0"
         y="-450"
         width="833.3333333333335"
         height="20"
         opacity=".5"
         fill="green"/>
   <rect x=" 0"
         y="-450"
         width="666.6666666666665"
         height="20"
         opacity=".5"
         fill="yellow"/>
   <rect x=" 0"
         y="-450"
         width="333.33333333333326"
         height="20"
         opacity=".5"
         fill="red"/>
   <rect x=" 0"
         y="-480"
         width="166.66666666666663"
         height="20"
         opacity=".5"
         fill="green"/>
   <rect x=" 0"
         y="-480"
         width="0"
         height="20"
         opacity=".5"
         fill="yellow"/>
   <rect x=" 0"
         y="-480"
         width="0"
         height="20"
         opacity=".5"
         fill="red"/>
   <line x1="0"
         x2="550"
         y1="-515"
         y2="-515"
         stroke="black"
         stroke-dasharray="2"/>
   <text x="-5" y="-515" text-anchor="end" dominant-baseline="middle">1916</text>
   <rect x=" 0"
         y="-510"
         width="750"
         height="20"
         opacity=".5"
         fill="green"/>
   <rect x=" 0"
         y="-510"
         width="500"
         height="20"
         opacity=".5"
         fill="yellow"/>
   <rect x=" 0"
         y="-510"
         width="250"
         height="20"
         opacity=".5"
         fill="red"/>
   <rect x=" 0"
         y="-540"
         width="0"
         height="20"
         opacity=".5"
         fill="green"/>
   <rect x=" 0"
         y="-540"
         width="0"
         height="20"
         opacity=".5"
         fill="yellow"/>
   <rect x=" 0"
         y="-540"
         width="0"
         height="20"
         opacity=".5"
         fill="red"/>
   <line x1="0"
         x2="550"
         y1="-575"
         y2="-575"
         stroke="black"
         stroke-dasharray="2"/>
   <text x="-5" y="-575" text-anchor="end" dominant-baseline="middle">1916</text>
   <rect x=" 0"
         y="-570"
         width="250"
         height="20"
         opacity=".5"
         fill="green"/>
   <rect x=" 0"
         y="-570"
         width="0"
         height="20"
         opacity=".5"
         fill="yellow"/>
   <rect x=" 0"
         y="-570"
         width="0"
         height="20"
         opacity=".5"
         fill="red"/>
   <rect x=" 0"
         y="-600"
         width="222.22222222222223"
         height="20"
         opacity=".5"
         fill="green"/>
   <rect x=" 0"
         y="-600"
         width="0"
         height="20"
         opacity=".5"
         fill="yellow"/>
   <rect x=" 0"
         y="-600"
         width="0"
         height="20"
         opacity=".5"
         fill="red"/>
   <rect x=" 0"
         y="-630"
         width="583.3333333333334"
         height="20"
         opacity=".5"
         fill="green"/>
   <rect x=" 0"
         y="-630"
         width="166.66666666666663"
         height="20"
         opacity=".5"
         fill="yellow"/>
   <rect x=" 0"
         y="-630"
         width="83.33333333333331"
         height="20"
         opacity=".5"
         fill="red"/>
   <rect x=" 0"
         y="-660"
         width="500"
         height="20"
         opacity=".5"
         fill="green"/>
   <rect x=" 0"
         y="-660"
         width="0"
         height="20"
         opacity=".5"
         fill="yellow"/>
   <rect x=" 0"
         y="-660"
         width="0"
         height="20"
         opacity=".5"
         fill="red"/>
   <rect x=" 0"
         y="-690"
         width="250"
         height="20"
         opacity=".5"
         fill="green"/>
   <rect x=" 0"
         y="-690"
         width="0"
         height="20"
         opacity=".5"
         fill="yellow"/>
   <rect x=" 0"
         y="-690"
         width="0"
         height="20"
         opacity=".5"
         fill="red"/>
   <rect x=" 0"
         y="-720"
         width="500"
         height="20"
         opacity=".5"
         fill="green"/>
   <rect x=" 0"
         y="-720"
         width="0"
         height="20"
         opacity=".5"
         fill="yellow"/>
   <rect x=" 0"
         y="-720"
         width="0"
         height="20"
         opacity=".5"
         fill="red"/>
   <line x1="0"
         x2="550"
         y1="-755"
         y2="-755"
         stroke="black"
         stroke-dasharray="2"/>
   <text x="-5" y="-755" text-anchor="end" dominant-baseline="middle">1916</text>
   <rect x=" 0"
         y="-750"
         width="400"
         height="20"
         opacity=".5"
         fill="green"/>
   <rect x=" 0"
         y="-750"
         width="100"
         height="20"
         opacity=".5"
         fill="yellow"/>
   <rect x=" 0"
         y="-750"
         width="50"
         height="20"
         opacity=".5"
         fill="red"/>
   <rect x=" 0"
         y="-780"
         width="437.5"
         height="20"
         opacity=".5"
         fill="green"/>
   <rect x=" 0"
         y="-780"
         width="125"
         height="20"
         opacity=".5"
         fill="yellow"/>
   <rect x=" 0"
         y="-780"
         width="62.5"
         height="20"
         opacity=".5"
         fill="red"/>
   <rect x=" 0"
         y="-810"
         width="250"
         height="20"
         opacity=".5"
         fill="green"/>
   <rect x=" 0"
         y="-810"
         width="0"
         height="20"
         opacity=".5"
         fill="yellow"/>
   <rect x=" 0"
         y="-810"
         width="0"
         height="20"
         opacity=".5"
         fill="red"/>
   <rect x=" 0"
         y="-840"
         width="375"
         height="20"
         opacity=".5"
         fill="green"/>
   <rect x=" 0"
         y="-840"
         width="166.66666666666663"
         height="20"
         opacity=".5"
         fill="yellow"/>
   <rect x=" 0"
         y="-840"
         width="83.33333333333331"
         height="20"
         opacity=".5"
         fill="red"/>
   <line x1="0"
         x2="550"
         y1="-875"
         y2="-875"
         stroke="black"
         stroke-dasharray="2"/>
   <text x="-5" y="-875" text-anchor="end" dominant-baseline="middle">1917</text>
   <rect x=" 0"
         y="-870"
         width="0"
         height="20"
         opacity=".5"
         fill="green"/>
   <rect x=" 0"
         y="-870"
         width="0"
         height="20"
         opacity=".5"
         fill="yellow"/>
   <rect x=" 0"
         y="-870"
         width="0"
         height="20"
         opacity=".5"
         fill="red"/>
   <line x1="0"
         x2="550"
         y1="-905"
         y2="-905"
         stroke="black"
         stroke-dasharray="2"/>
   <text x="-5" y="-905" text-anchor="end" dominant-baseline="middle">1917</text>
   <rect x=" 0"
         y="-900"
         width="500"
         height="20"
         opacity=".5"
         fill="green"/>
   <rect x=" 0"
         y="-900"
         width="0"
         height="20"
         opacity=".5"
         fill="yellow"/>
   <rect x=" 0"
         y="-900"
         width="0"
         height="20"
         opacity=".5"
         fill="red"/>
   <line x1="0"
         x2="550"
         y1="-935"
         y2="-935"
         stroke="black"
         stroke-dasharray="2"/>
   <text x="-5" y="-935" text-anchor="end" dominant-baseline="middle">1917</text>
   <rect x=" 0"
         y="-930"
         width="625"
         height="20"
         opacity=".5"
         fill="green"/>
   <rect x=" 0"
         y="-930"
         width="250"
         height="20"
         opacity=".5"
         fill="yellow"/>
   <rect x=" 0"
         y="-930"
         width="125"
         height="20"
         opacity=".5"
         fill="red"/>
   <line x1="0"
         x2="550"
         y1="-965"
         y2="-965"
         stroke="black"
         stroke-dasharray="2"/>
   <text x="-5" y="-965" text-anchor="end" dominant-baseline="middle">1917</text>
   <rect x=" 0"
         y="-960"
         width="1000"
         height="20"
         opacity=".5"
         fill="green"/>
   <rect x=" 0"
         y="-960"
         width="1000"
         height="20"
         opacity=".5"
         fill="yellow"/>
   <rect x=" 0"
         y="-960"
         width="500"
         height="20"
         opacity=".5"
         fill="red"/>
   <line x1="0"
         x2="550"
         y1="-995"
         y2="-995"
         stroke="black"
         stroke-dasharray="2"/>
   <text x="-5" y="-995" text-anchor="end" dominant-baseline="middle">1917</text>
   <rect x=" 0"
         y="-990"
         width="500"
         height="20"
         opacity=".5"
         fill="green"/>
   <rect x=" 0"
         y="-990"
         width="0"
         height="20"
         opacity=".5"
         fill="yellow"/>
   <rect x=" 0"
         y="-990"
         width="0"
         height="20"
         opacity=".5"
         fill="red"/>
   <rect x=" 0"
         y="-1020"
         width="437.5"
         height="20"
         opacity=".5"
         fill="green"/>
   <rect x=" 0"
         y="-1020"
         width="250"
         height="20"
         opacity=".5"
         fill="yellow"/>
   <rect x=" 0"
         y="-1020"
         width="125"
         height="20"
         opacity=".5"
         fill="red"/>
   <line x1="0"
         x2="550"
         y1="-1055"
         y2="-1055"
         stroke="black"
         stroke-dasharray="2"/>
   <text x="-5" y="-1055" text-anchor="end" dominant-baseline="middle">1917</text>
   <rect x=" 0"
         y="-1050"
         width="333.33333333333326"
         height="20"
         opacity=".5"
         fill="green"/>
   <rect x=" 0"
         y="-1050"
         width="166.66666666666663"
         height="20"
         opacity=".5"
         fill="yellow"/>
   <rect x=" 0"
         y="-1050"
         width="83.33333333333331"
         height="20"
         opacity=".5"
         fill="red"/>
   <line x1="0"
         x2="550"
         y1="-1085"
         y2="-1085"
         stroke="black"
         stroke-dasharray="2"/>
   <text x="-5" y="-1085" text-anchor="end" dominant-baseline="middle">1917</text>
   <rect x=" 0"
         y="-1080"
         width="500"
         height="20"
         opacity=".5"
         fill="green"/>
   <rect x=" 0"
         y="-1080"
         width="0"
         height="20"
         opacity=".5"
         fill="yellow"/>
   <rect x=" 0"
         y="-1080"
         width="0"
         height="20"
         opacity=".5"
         fill="red"/>
   <rect x=" 0"
         y="-1110"
         width="375"
         height="20"
         opacity=".5"
         fill="green"/>
   <rect x=" 0"
         y="-1110"
         width="0"
         height="20"
         opacity=".5"
         fill="yellow"/>
   <rect x=" 0"
         y="-1110"
         width="0"
         height="20"
         opacity=".5"
         fill="red"/>
   <rect x=" 0"
         y="-1140"
         width="333.33333333333326"
         height="20"
         opacity=".5"
         fill="green"/>
   <rect x=" 0"
         y="-1140"
         width="0"
         height="20"
         opacity=".5"
         fill="yellow"/>
   <rect x=" 0"
         y="-1140"
         width="0"
         height="20"
         opacity=".5"
         fill="red"/>
   <line x1="0"
         x2="550"
         y1="-1175"
         y2="-1175"
         stroke="black"
         stroke-dasharray="2"/>
   <text x="-5" y="-1175" text-anchor="end" dominant-baseline="middle">1917</text>
   <rect x=" 0"
         y="-1170"
         width="214.28571428571428"
         height="20"
         opacity=".5"
         fill="green"/>
   <rect x=" 0"
         y="-1170"
         width="142.85714285714283"
         height="20"
         opacity=".5"
         fill="yellow"/>
   <rect x=" 0"
         y="-1170"
         width="71.42857142857142"
         height="20"
         opacity=".5"
         fill="red"/>
   <line x1="0"
         x2="550"
         y1="-1205"
         y2="-1205"
         stroke="black"
         stroke-dasharray="2"/>
   <text x="-5" y="-1205" text-anchor="end" dominant-baseline="middle">1917</text>
   <rect x=" 0"
         y="-1200"
         width="500"
         height="20"
         opacity=".5"
         fill="green"/>
   <rect x=" 0"
         y="-1200"
         width="333.33333333333326"
         height="20"
         opacity=".5"
         fill="yellow"/>
   <rect x=" 0"
         y="-1200"
         width="166.66666666666663"
         height="20"
         opacity=".5"
         fill="red"/>
   <line x1="0"
         x2="550"
         y1="-1235"
         y2="-1235"
         stroke="black"
         stroke-dasharray="2"/>
   <text x="-5" y="-1235" text-anchor="end" dominant-baseline="middle">1918</text>
   <rect x=" 0"
         y="-1230"
         width="900"
         height="20"
         opacity=".5"
         fill="green"/>
   <rect x=" 0"
         y="-1230"
         width="800"
         height="20"
         opacity=".5"
         fill="yellow"/>
   <rect x=" 0"
         y="-1230"
         width="400"
         height="20"
         opacity=".5"
         fill="red"/>
   <line x1="0"
         x2="550"
         y1="-1265"
         y2="-1265"
         stroke="black"
         stroke-dasharray="2"/>
   <text x="-5" y="-1265" text-anchor="end" dominant-baseline="middle">1918</text>
   <rect x=" 0"
         y="-1260"
         width="500"
         height="20"
         opacity=".5"
         fill="green"/>
   <rect x=" 0"
         y="-1260"
         width="0"
         height="20"
         opacity=".5"
         fill="yellow"/>
   <rect x=" 0"
         y="-1260"
         width="0"
         height="20"
         opacity=".5"
         fill="red"/>
   <rect x=" 0"
         y="-1290"
         width="615.3846153846154"
         height="20"
         opacity=".5"
         fill="green"/>
   <rect x=" 0"
         y="-1290"
         width="307.6923076923077"
         height="20"
         opacity=".5"
         fill="yellow"/>
   <rect x=" 0"
         y="-1290"
         width="153.84615384615384"
         height="20"
         opacity=".5"
         fill="red"/>
   <rect x=" 0"
         y="-1320"
         width="500"
         height="20"
         opacity=".5"
         fill="green"/>
   <rect x=" 0"
         y="-1320"
         width="300"
         height="20"
         opacity=".5"
         fill="yellow"/>
   <rect x=" 0"
         y="-1320"
         width="150"
         height="20"
         opacity=".5"
         fill="red"/>
   <rect x=" 0"
         y="-1350"
         width="555.5555555555555"
         height="20"
         opacity=".5"
         fill="green"/>
   <rect x=" 0"
         y="-1350"
         width="444.44444444444446"
         height="20"
         opacity=".5"
         fill="yellow"/>
   <rect x=" 0"
         y="-1350"
         width="222.22222222222223"
         height="20"
         opacity=".5"
         fill="red"/>
   <rect x=" 0"
         y="-1380"
         width="333.33333333333326"
         height="20"
         opacity=".5"
         fill="green"/>
   <rect x=" 0"
         y="-1380"
         width="83.33333333333331"
         height="20"
         opacity=".5"
         fill="yellow"/>
   <rect x=" 0"
         y="-1380"
         width="41.66666666666666"
         height="20"
         opacity=".5"
         fill="red"/>
   <line x1="0"
         x2="550"
         y1="-1415"
         y2="-1415"
         stroke="black"
         stroke-dasharray="2"/>
   <text x="-5" y="-1415" text-anchor="end" dominant-baseline="middle">1919</text>
   <rect x=" 0"
         y="-1410"
         width="500"
         height="20"
         opacity=".5"
         fill="green"/>
   <rect x=" 0"
         y="-1410"
         width="0"
         height="20"
         opacity=".5"
         fill="yellow"/>
   <rect x=" 0"
         y="-1410"
         width="0"
         height="20"
         opacity=".5"
         fill="red"/>
   <line x1="0"
         x2="550"
         y1="-1445"
         y2="-1445"
         stroke="black"
         stroke-dasharray="2"/>
   <text x="-5" y="-1445" text-anchor="end" dominant-baseline="middle">1920</text>
   <rect x=" 0"
         y="-1440"
         width="250"
         height="20"
         opacity=".5"
         fill="green"/>
   <rect x=" 0"
         y="-1440"
         width="0"
         height="20"
         opacity=".5"
         fill="yellow"/>
   <rect x=" 0"
         y="-1440"
         width="0"
         height="20"
         opacity=".5"
         fill="red"/>
   <line x1="0"
         x2="550"
         y1="-1475"
         y2="-1475"
         stroke="black"
         stroke-dasharray="2"/>
   <text x="-5" y="-1475" text-anchor="end" dominant-baseline="middle"/>
   <rect x=" 0"
         y="-1470"
         width="230.76923076923077"
         height="20"
         opacity=".5"
         fill="green"/>
   <rect x=" 0"
         y="-1470"
         width="153.84615384615384"
         height="20"
         opacity=".5"
         fill="yellow"/>
   <rect x=" 0"
         y="-1470"
         width="76.92307692307692"
         height="20"
         opacity=".5"
         fill="red"/>
   <line x1="0" y1="0" x2="0" y2="-1470" stroke="black"/>
   <line x1="0" y1="0" x2="550" y2="0" stroke="black"/>
</svg>
