<?xml version="1.0" encoding="UTF-8"?>
<svg xmlns="http://www.w3.org/2000/svg"
     height="1520"
     width="600"
     viewBox="-150, -1570, 750, 1845">
   <line x1="0"
         x2="550"
         y1="-29.999999999999996"
         y2="-29.999999999999996"
         stroke="black"
         stroke-dasharray="2"/>
   <text x="-5"
         y="-29.999999999999996"
         text-anchor="end"
         dominant-baseline="middle">Year</text>
   <line x1="0"
         x2="550"
         y1="-780"
         y2="-780"
         stroke="black"
         stroke-dasharray="2"/>
   <text x="-5" y="-780" text-anchor="end" dominant-baseline="middle">Year</text>
   <line x1="0"
         x2="550"
         y1="-390"
         y2="-390"
         stroke="black"
         stroke-dasharray="2"/>
   <text x="-5" y="-390" text-anchor="end" dominant-baseline="middle">Year</text>
   <line x1="0"
         x2="550"
         y1="-180"
         y2="-180"
         stroke="black"
         stroke-dasharray="2"/>
   <text x="-5" y="-180" text-anchor="end" dominant-baseline="middle">Year</text>
   <line x1="0"
         x2="550"
         y1="-29.999999999999996"
         y2="-29.999999999999996"
         stroke="black"
         stroke-dasharray="2"/>
   <text x="-5"
         y="-29.999999999999996"
         text-anchor="end"
         dominant-baseline="middle">Year</text>
   <line x1="0"
         x2="550"
         y1="-29.999999999999996"
         y2="-29.999999999999996"
         stroke="black"
         stroke-dasharray="2"/>
   <text x="-5"
         y="-29.999999999999996"
         text-anchor="end"
         dominant-baseline="middle">Year</text>
   <rect x=" 0"
         y="-0"
         width="378.42465753424665"
         height="20"
         opacity=".5"
         fill="WhiteSmoke"/>
   <rect x=" 0"
         y="-0"
         width="174.65753424657535"
         height="20"
         opacity=".5"
         fill="LightGray"/>
   <rect x=" 0"
         y="-0"
         width="87.32876712328768"
         height="20"
         opacity=".5"
         fill="DarkSlateGray"/>
   <rect x=" 0"
         y="-30"
         width="378.42465753424665"
         height="20"
         opacity=".5"
         fill="WhiteSmoke"/>
   <rect x=" 0"
         y="-30"
         width="174.65753424657535"
         height="20"
         opacity=".5"
         fill="LightGray"/>
   <rect x=" 0"
         y="-30"
         width="87.32876712328768"
         height="20"
         opacity=".5"
         fill="DarkSlateGray"/>
   <rect x=" 0"
         y="-60"
         width="378.42465753424665"
         height="20"
         opacity=".5"
         fill="WhiteSmoke"/>
   <rect x=" 0"
         y="-60"
         width="174.65753424657535"
         height="20"
         opacity=".5"
         fill="LightGray"/>
   <rect x=" 0"
         y="-60"
         width="87.32876712328768"
         height="20"
         opacity=".5"
         fill="DarkSlateGray"/>
   <rect x=" 0"
         y="-90"
         width="378.42465753424665"
         height="20"
         opacity=".5"
         fill="WhiteSmoke"/>
   <rect x=" 0"
         y="-90"
         width="174.65753424657535"
         height="20"
         opacity=".5"
         fill="LightGray"/>
   <rect x=" 0"
         y="-90"
         width="87.32876712328768"
         height="20"
         opacity=".5"
         fill="DarkSlateGray"/>
   <rect x=" 0"
         y="-120"
         width="378.42465753424665"
         height="20"
         opacity=".5"
         fill="WhiteSmoke"/>
   <rect x=" 0"
         y="-120"
         width="174.65753424657535"
         height="20"
         opacity=".5"
         fill="LightGray"/>
   <rect x=" 0"
         y="-120"
         width="87.32876712328768"
         height="20"
         opacity=".5"
         fill="DarkSlateGray"/>
   <rect x=" 0"
         y="-150"
         width="378.42465753424665"
         height="20"
         opacity=".5"
         fill="WhiteSmoke"/>
   <rect x=" 0"
         y="-150"
         width="174.65753424657535"
         height="20"
         opacity=".5"
         fill="LightGray"/>
   <rect x=" 0"
         y="-150"
         width="87.32876712328768"
         height="20"
         opacity=".5"
         fill="DarkSlateGray"/>
   <rect x=" 0"
         y="-180"
         width="378.42465753424665"
         height="20"
         opacity=".5"
         fill="WhiteSmoke"/>
   <rect x=" 0"
         y="-180"
         width="174.65753424657535"
         height="20"
         opacity=".5"
         fill="LightGray"/>
   <rect x=" 0"
         y="-180"
         width="87.32876712328768"
         height="20"
         opacity=".5"
         fill="DarkSlateGray"/>
   <rect x=" 0"
         y="-210"
         width="378.42465753424665"
         height="20"
         opacity=".5"
         fill="WhiteSmoke"/>
   <rect x=" 0"
         y="-210"
         width="174.65753424657535"
         height="20"
         opacity=".5"
         fill="LightGray"/>
   <rect x=" 0"
         y="-210"
         width="87.32876712328768"
         height="20"
         opacity=".5"
         fill="DarkSlateGray"/>
   <rect x=" 0"
         y="-240"
         width="378.42465753424665"
         height="20"
         opacity=".5"
         fill="WhiteSmoke"/>
   <rect x=" 0"
         y="-240"
         width="174.65753424657535"
         height="20"
         opacity=".5"
         fill="LightGray"/>
   <rect x=" 0"
         y="-240"
         width="87.32876712328768"
         height="20"
         opacity=".5"
         fill="DarkSlateGray"/>
   <rect x=" 0"
         y="-270"
         width="378.42465753424665"
         height="20"
         opacity=".5"
         fill="WhiteSmoke"/>
   <rect x=" 0"
         y="-270"
         width="174.65753424657535"
         height="20"
         opacity=".5"
         fill="LightGray"/>
   <rect x=" 0"
         y="-270"
         width="87.32876712328768"
         height="20"
         opacity=".5"
         fill="DarkSlateGray"/>
   <rect x=" 0"
         y="-300"
         width="378.42465753424665"
         height="20"
         opacity=".5"
         fill="WhiteSmoke"/>
   <rect x=" 0"
         y="-300"
         width="174.65753424657535"
         height="20"
         opacity=".5"
         fill="LightGray"/>
   <rect x=" 0"
         y="-300"
         width="87.32876712328768"
         height="20"
         opacity=".5"
         fill="DarkSlateGray"/>
   <rect x=" 0"
         y="-330"
         width="378.42465753424665"
         height="20"
         opacity=".5"
         fill="WhiteSmoke"/>
   <rect x=" 0"
         y="-330"
         width="174.65753424657535"
         height="20"
         opacity=".5"
         fill="LightGray"/>
   <rect x=" 0"
         y="-330"
         width="87.32876712328768"
         height="20"
         opacity=".5"
         fill="DarkSlateGray"/>
   <rect x=" 0"
         y="-360"
         width="378.42465753424665"
         height="20"
         opacity=".5"
         fill="WhiteSmoke"/>
   <rect x=" 0"
         y="-360"
         width="174.65753424657535"
         height="20"
         opacity=".5"
         fill="LightGray"/>
   <rect x=" 0"
         y="-360"
         width="87.32876712328768"
         height="20"
         opacity=".5"
         fill="DarkSlateGray"/>
   <rect x=" 0"
         y="-390"
         width="378.42465753424665"
         height="20"
         opacity=".5"
         fill="WhiteSmoke"/>
   <rect x=" 0"
         y="-390"
         width="174.65753424657535"
         height="20"
         opacity=".5"
         fill="LightGray"/>
   <rect x=" 0"
         y="-390"
         width="87.32876712328768"
         height="20"
         opacity=".5"
         fill="DarkSlateGray"/>
   <rect x=" 0"
         y="-420"
         width="378.42465753424665"
         height="20"
         opacity=".5"
         fill="WhiteSmoke"/>
   <rect x=" 0"
         y="-420"
         width="174.65753424657535"
         height="20"
         opacity=".5"
         fill="LightGray"/>
   <rect x=" 0"
         y="-420"
         width="87.32876712328768"
         height="20"
         opacity=".5"
         fill="DarkSlateGray"/>
   <rect x=" 0"
         y="-450"
         width="378.42465753424665"
         height="20"
         opacity=".5"
         fill="WhiteSmoke"/>
   <rect x=" 0"
         y="-450"
         width="174.65753424657535"
         height="20"
         opacity=".5"
         fill="LightGray"/>
   <rect x=" 0"
         y="-450"
         width="87.32876712328768"
         height="20"
         opacity=".5"
         fill="DarkSlateGray"/>
   <rect x=" 0"
         y="-480"
         width="378.42465753424665"
         height="20"
         opacity=".5"
         fill="WhiteSmoke"/>
   <rect x=" 0"
         y="-480"
         width="174.65753424657535"
         height="20"
         opacity=".5"
         fill="LightGray"/>
   <rect x=" 0"
         y="-480"
         width="87.32876712328768"
         height="20"
         opacity=".5"
         fill="DarkSlateGray"/>
   <rect x=" 0"
         y="-510"
         width="378.42465753424665"
         height="20"
         opacity=".5"
         fill="WhiteSmoke"/>
   <rect x=" 0"
         y="-510"
         width="174.65753424657535"
         height="20"
         opacity=".5"
         fill="LightGray"/>
   <rect x=" 0"
         y="-510"
         width="87.32876712328768"
         height="20"
         opacity=".5"
         fill="DarkSlateGray"/>
   <rect x=" 0"
         y="-540"
         width="378.42465753424665"
         height="20"
         opacity=".5"
         fill="WhiteSmoke"/>
   <rect x=" 0"
         y="-540"
         width="174.65753424657535"
         height="20"
         opacity=".5"
         fill="LightGray"/>
   <rect x=" 0"
         y="-540"
         width="87.32876712328768"
         height="20"
         opacity=".5"
         fill="DarkSlateGray"/>
   <rect x=" 0"
         y="-570"
         width="378.42465753424665"
         height="20"
         opacity=".5"
         fill="WhiteSmoke"/>
   <rect x=" 0"
         y="-570"
         width="174.65753424657535"
         height="20"
         opacity=".5"
         fill="LightGray"/>
   <rect x=" 0"
         y="-570"
         width="87.32876712328768"
         height="20"
         opacity=".5"
         fill="DarkSlateGray"/>
   <rect x=" 0"
         y="-600"
         width="378.42465753424665"
         height="20"
         opacity=".5"
         fill="WhiteSmoke"/>
   <rect x=" 0"
         y="-600"
         width="174.65753424657535"
         height="20"
         opacity=".5"
         fill="LightGray"/>
   <rect x=" 0"
         y="-600"
         width="87.32876712328768"
         height="20"
         opacity=".5"
         fill="DarkSlateGray"/>
   <rect x=" 0"
         y="-630"
         width="378.42465753424665"
         height="20"
         opacity=".5"
         fill="WhiteSmoke"/>
   <rect x=" 0"
         y="-630"
         width="174.65753424657535"
         height="20"
         opacity=".5"
         fill="LightGray"/>
   <rect x=" 0"
         y="-630"
         width="87.32876712328768"
         height="20"
         opacity=".5"
         fill="DarkSlateGray"/>
   <rect x=" 0"
         y="-660"
         width="378.42465753424665"
         height="20"
         opacity=".5"
         fill="WhiteSmoke"/>
   <rect x=" 0"
         y="-660"
         width="174.65753424657535"
         height="20"
         opacity=".5"
         fill="LightGray"/>
   <rect x=" 0"
         y="-660"
         width="87.32876712328768"
         height="20"
         opacity=".5"
         fill="DarkSlateGray"/>
   <rect x=" 0"
         y="-690"
         width="378.42465753424665"
         height="20"
         opacity=".5"
         fill="WhiteSmoke"/>
   <rect x=" 0"
         y="-690"
         width="174.65753424657535"
         height="20"
         opacity=".5"
         fill="LightGray"/>
   <rect x=" 0"
         y="-690"
         width="87.32876712328768"
         height="20"
         opacity=".5"
         fill="DarkSlateGray"/>
   <rect x=" 0"
         y="-720"
         width="378.42465753424665"
         height="20"
         opacity=".5"
         fill="WhiteSmoke"/>
   <rect x=" 0"
         y="-720"
         width="174.65753424657535"
         height="20"
         opacity=".5"
         fill="LightGray"/>
   <rect x=" 0"
         y="-720"
         width="87.32876712328768"
         height="20"
         opacity=".5"
         fill="DarkSlateGray"/>
   <rect x=" 0"
         y="-750"
         width="378.42465753424665"
         height="20"
         opacity=".5"
         fill="WhiteSmoke"/>
   <rect x=" 0"
         y="-750"
         width="174.65753424657535"
         height="20"
         opacity=".5"
         fill="LightGray"/>
   <rect x=" 0"
         y="-750"
         width="87.32876712328768"
         height="20"
         opacity=".5"
         fill="DarkSlateGray"/>
   <rect x=" 0"
         y="-780"
         width="378.42465753424665"
         height="20"
         opacity=".5"
         fill="WhiteSmoke"/>
   <rect x=" 0"
         y="-780"
         width="174.65753424657535"
         height="20"
         opacity=".5"
         fill="LightGray"/>
   <rect x=" 0"
         y="-780"
         width="87.32876712328768"
         height="20"
         opacity=".5"
         fill="DarkSlateGray"/>
   <rect x=" 0"
         y="-810"
         width="378.42465753424665"
         height="20"
         opacity=".5"
         fill="WhiteSmoke"/>
   <rect x=" 0"
         y="-810"
         width="174.65753424657535"
         height="20"
         opacity=".5"
         fill="LightGray"/>
   <rect x=" 0"
         y="-810"
         width="87.32876712328768"
         height="20"
         opacity=".5"
         fill="DarkSlateGray"/>
   <rect x=" 0"
         y="-840"
         width="378.42465753424665"
         height="20"
         opacity=".5"
         fill="WhiteSmoke"/>
   <rect x=" 0"
         y="-840"
         width="174.65753424657535"
         height="20"
         opacity=".5"
         fill="LightGray"/>
   <rect x=" 0"
         y="-840"
         width="87.32876712328768"
         height="20"
         opacity=".5"
         fill="DarkSlateGray"/>
   <rect x=" 0"
         y="-870"
         width="378.42465753424665"
         height="20"
         opacity=".5"
         fill="WhiteSmoke"/>
   <rect x=" 0"
         y="-870"
         width="174.65753424657535"
         height="20"
         opacity=".5"
         fill="LightGray"/>
   <rect x=" 0"
         y="-870"
         width="87.32876712328768"
         height="20"
         opacity=".5"
         fill="DarkSlateGray"/>
   <rect x=" 0"
         y="-900"
         width="378.42465753424665"
         height="20"
         opacity=".5"
         fill="WhiteSmoke"/>
   <rect x=" 0"
         y="-900"
         width="174.65753424657535"
         height="20"
         opacity=".5"
         fill="LightGray"/>
   <rect x=" 0"
         y="-900"
         width="87.32876712328768"
         height="20"
         opacity=".5"
         fill="DarkSlateGray"/>
   <rect x=" 0"
         y="-930"
         width="378.42465753424665"
         height="20"
         opacity=".5"
         fill="WhiteSmoke"/>
   <rect x=" 0"
         y="-930"
         width="174.65753424657535"
         height="20"
         opacity=".5"
         fill="LightGray"/>
   <rect x=" 0"
         y="-930"
         width="87.32876712328768"
         height="20"
         opacity=".5"
         fill="DarkSlateGray"/>
   <rect x=" 0"
         y="-960"
         width="378.42465753424665"
         height="20"
         opacity=".5"
         fill="WhiteSmoke"/>
   <rect x=" 0"
         y="-960"
         width="174.65753424657535"
         height="20"
         opacity=".5"
         fill="LightGray"/>
   <rect x=" 0"
         y="-960"
         width="87.32876712328768"
         height="20"
         opacity=".5"
         fill="DarkSlateGray"/>
   <rect x=" 0"
         y="-990"
         width="378.42465753424665"
         height="20"
         opacity=".5"
         fill="WhiteSmoke"/>
   <rect x=" 0"
         y="-990"
         width="174.65753424657535"
         height="20"
         opacity=".5"
         fill="LightGray"/>
   <rect x=" 0"
         y="-990"
         width="87.32876712328768"
         height="20"
         opacity=".5"
         fill="DarkSlateGray"/>
   <rect x=" 0"
         y="-1020"
         width="378.42465753424665"
         height="20"
         opacity=".5"
         fill="WhiteSmoke"/>
   <rect x=" 0"
         y="-1020"
         width="174.65753424657535"
         height="20"
         opacity=".5"
         fill="LightGray"/>
   <rect x=" 0"
         y="-1020"
         width="87.32876712328768"
         height="20"
         opacity=".5"
         fill="DarkSlateGray"/>
   <rect x=" 0"
         y="-1050"
         width="378.42465753424665"
         height="20"
         opacity=".5"
         fill="WhiteSmoke"/>
   <rect x=" 0"
         y="-1050"
         width="174.65753424657535"
         height="20"
         opacity=".5"
         fill="LightGray"/>
   <rect x=" 0"
         y="-1050"
         width="87.32876712328768"
         height="20"
         opacity=".5"
         fill="DarkSlateGray"/>
   <rect x=" 0"
         y="-1080"
         width="378.42465753424665"
         height="20"
         opacity=".5"
         fill="WhiteSmoke"/>
   <rect x=" 0"
         y="-1080"
         width="174.65753424657535"
         height="20"
         opacity=".5"
         fill="LightGray"/>
   <rect x=" 0"
         y="-1080"
         width="87.32876712328768"
         height="20"
         opacity=".5"
         fill="DarkSlateGray"/>
   <rect x=" 0"
         y="-1110"
         width="378.42465753424665"
         height="20"
         opacity=".5"
         fill="WhiteSmoke"/>
   <rect x=" 0"
         y="-1110"
         width="174.65753424657535"
         height="20"
         opacity=".5"
         fill="LightGray"/>
   <rect x=" 0"
         y="-1110"
         width="87.32876712328768"
         height="20"
         opacity=".5"
         fill="DarkSlateGray"/>
   <rect x=" 0"
         y="-1140"
         width="378.42465753424665"
         height="20"
         opacity=".5"
         fill="WhiteSmoke"/>
   <rect x=" 0"
         y="-1140"
         width="174.65753424657535"
         height="20"
         opacity=".5"
         fill="LightGray"/>
   <rect x=" 0"
         y="-1140"
         width="87.32876712328768"
         height="20"
         opacity=".5"
         fill="DarkSlateGray"/>
   <rect x=" 0"
         y="-1170"
         width="378.42465753424665"
         height="20"
         opacity=".5"
         fill="WhiteSmoke"/>
   <rect x=" 0"
         y="-1170"
         width="174.65753424657535"
         height="20"
         opacity=".5"
         fill="LightGray"/>
   <rect x=" 0"
         y="-1170"
         width="87.32876712328768"
         height="20"
         opacity=".5"
         fill="DarkSlateGray"/>
   <rect x=" 0"
         y="-1200"
         width="378.42465753424665"
         height="20"
         opacity=".5"
         fill="WhiteSmoke"/>
   <rect x=" 0"
         y="-1200"
         width="174.65753424657535"
         height="20"
         opacity=".5"
         fill="LightGray"/>
   <rect x=" 0"
         y="-1200"
         width="87.32876712328768"
         height="20"
         opacity=".5"
         fill="DarkSlateGray"/>
   <rect x=" 0"
         y="-1230"
         width="378.42465753424665"
         height="20"
         opacity=".5"
         fill="WhiteSmoke"/>
   <rect x=" 0"
         y="-1230"
         width="174.65753424657535"
         height="20"
         opacity=".5"
         fill="LightGray"/>
   <rect x=" 0"
         y="-1230"
         width="87.32876712328768"
         height="20"
         opacity=".5"
         fill="DarkSlateGray"/>
   <rect x=" 0"
         y="-1260"
         width="378.42465753424665"
         height="20"
         opacity=".5"
         fill="WhiteSmoke"/>
   <rect x=" 0"
         y="-1260"
         width="174.65753424657535"
         height="20"
         opacity=".5"
         fill="LightGray"/>
   <rect x=" 0"
         y="-1260"
         width="87.32876712328768"
         height="20"
         opacity=".5"
         fill="DarkSlateGray"/>
   <rect x=" 0"
         y="-1290"
         width="378.42465753424665"
         height="20"
         opacity=".5"
         fill="WhiteSmoke"/>
   <rect x=" 0"
         y="-1290"
         width="174.65753424657535"
         height="20"
         opacity=".5"
         fill="LightGray"/>
   <rect x=" 0"
         y="-1290"
         width="87.32876712328768"
         height="20"
         opacity=".5"
         fill="DarkSlateGray"/>
   <rect x=" 0"
         y="-1320"
         width="378.42465753424665"
         height="20"
         opacity=".5"
         fill="WhiteSmoke"/>
   <rect x=" 0"
         y="-1320"
         width="174.65753424657535"
         height="20"
         opacity=".5"
         fill="LightGray"/>
   <rect x=" 0"
         y="-1320"
         width="87.32876712328768"
         height="20"
         opacity=".5"
         fill="DarkSlateGray"/>
   <rect x=" 0"
         y="-1350"
         width="378.42465753424665"
         height="20"
         opacity=".5"
         fill="WhiteSmoke"/>
   <rect x=" 0"
         y="-1350"
         width="174.65753424657535"
         height="20"
         opacity=".5"
         fill="LightGray"/>
   <rect x=" 0"
         y="-1350"
         width="87.32876712328768"
         height="20"
         opacity=".5"
         fill="DarkSlateGray"/>
   <rect x=" 0"
         y="-1380"
         width="378.42465753424665"
         height="20"
         opacity=".5"
         fill="WhiteSmoke"/>
   <rect x=" 0"
         y="-1380"
         width="174.65753424657535"
         height="20"
         opacity=".5"
         fill="LightGray"/>
   <rect x=" 0"
         y="-1380"
         width="87.32876712328768"
         height="20"
         opacity=".5"
         fill="DarkSlateGray"/>
   <rect x=" 0"
         y="-1410"
         width="378.42465753424665"
         height="20"
         opacity=".5"
         fill="WhiteSmoke"/>
   <rect x=" 0"
         y="-1410"
         width="174.65753424657535"
         height="20"
         opacity=".5"
         fill="LightGray"/>
   <rect x=" 0"
         y="-1410"
         width="87.32876712328768"
         height="20"
         opacity=".5"
         fill="DarkSlateGray"/>
   <rect x=" 0"
         y="-1440"
         width="378.42465753424665"
         height="20"
         opacity=".5"
         fill="WhiteSmoke"/>
   <rect x=" 0"
         y="-1440"
         width="174.65753424657535"
         height="20"
         opacity=".5"
         fill="LightGray"/>
   <rect x=" 0"
         y="-1440"
         width="87.32876712328768"
         height="20"
         opacity=".5"
         fill="DarkSlateGray"/>
   <line x1="0" y1="0" x2="0" y2="-1470" stroke="black"/>
   <line x1="0" y1="0" x2="550" y2="0" stroke="black"/>
</svg>
