<?xml version="1.0" encoding="UTF-8"?>
<svg xmlns="http://www.w3.org/2000/svg"
     height="1520"
     width="600"
     viewBox="-150, -1570, 750, 1845">
   <line x1="0"
         x2="550"
         y1="-29.999999999999996"
         y2="-29.999999999999996"
         stroke="black"
         stroke-dasharray="2"/>
   <text x="-5"
         y="-29.999999999999996"
         text-anchor="end"
         dominant-baseline="middle">Year</text>
   <line x1="0"
         x2="550"
         y1="-780"
         y2="-780"
         stroke="black"
         stroke-dasharray="2"/>
   <text x="-5" y="-780" text-anchor="end" dominant-baseline="middle">Year</text>
   <line x1="0"
         x2="550"
         y1="-390"
         y2="-390"
         stroke="black"
         stroke-dasharray="2"/>
   <text x="-5" y="-390" text-anchor="end" dominant-baseline="middle">Year</text>
   <line x1="0"
         x2="550"
         y1="-180"
         y2="-180"
         stroke="black"
         stroke-dasharray="2"/>
   <text x="-5" y="-180" text-anchor="end" dominant-baseline="middle">Year</text>
   <line x1="0"
         x2="550"
         y1="-29.999999999999996"
         y2="-29.999999999999996"
         stroke="black"
         stroke-dasharray="2"/>
   <text x="-5"
         y="-29.999999999999996"
         text-anchor="end"
         dominant-baseline="middle">Year</text>
   <line x1="0"
         x2="550"
         y1="-29.999999999999996"
         y2="-29.999999999999996"
         stroke="black"
         stroke-dasharray="2"/>
   <text x="-5"
         y="-29.999999999999996"
         text-anchor="end"
         dominant-baseline="middle">Year</text>
   <rect x=" 0"
         y="-0"
         width="333.33333333333326"
         height="20"
         opacity=".5"
         fill="WhiteSmoke"/>
   <rect x=" 0"
         y="-0"
         width="0"
         height="20"
         opacity=".5"
         fill="LightGray"/>
   <rect x=" 0"
         y="-0"
         width="0"
         height="20"
         opacity=".5"
         fill="DarkSlateGray"/>
   <rect x=" 0"
         y="-30"
         width="166.66666666666663"
         height="20"
         opacity=".5"
         fill="WhiteSmoke"/>
   <rect x=" 0"
         y="-30"
         width="0"
         height="20"
         opacity=".5"
         fill="LightGray"/>
   <rect x=" 0"
         y="-30"
         width="0"
         height="20"
         opacity=".5"
         fill="DarkSlateGray"/>
   <rect x=" 0"
         y="-60"
         width="222.22222222222223"
         height="20"
         opacity=".5"
         fill="WhiteSmoke"/>
   <rect x=" 0"
         y="-60"
         width="0"
         height="20"
         opacity=".5"
         fill="LightGray"/>
   <rect x=" 0"
         y="-60"
         width="0"
         height="20"
         opacity=".5"
         fill="DarkSlateGray"/>
   <rect x=" 0"
         y="-90"
         width="625"
         height="20"
         opacity=".5"
         fill="WhiteSmoke"/>
   <rect x=" 0"
         y="-90"
         width="250"
         height="20"
         opacity=".5"
         fill="LightGray"/>
   <rect x=" 0"
         y="-90"
         width="125"
         height="20"
         opacity=".5"
         fill="DarkSlateGray"/>
   <rect x=" 0"
         y="-120"
         width="375"
         height="20"
         opacity=".5"
         fill="WhiteSmoke"/>
   <rect x=" 0"
         y="-120"
         width="0"
         height="20"
         opacity=".5"
         fill="LightGray"/>
   <rect x=" 0"
         y="-120"
         width="0"
         height="20"
         opacity=".5"
         fill="DarkSlateGray"/>
   <rect x=" 0"
         y="-150"
         width="250"
         height="20"
         opacity=".5"
         fill="WhiteSmoke"/>
   <rect x=" 0"
         y="-150"
         width="0"
         height="20"
         opacity=".5"
         fill="LightGray"/>
   <rect x=" 0"
         y="-150"
         width="0"
         height="20"
         opacity=".5"
         fill="DarkSlateGray"/>
   <rect x=" 0"
         y="-180"
         width="375"
         height="20"
         opacity=".5"
         fill="WhiteSmoke"/>
   <rect x=" 0"
         y="-180"
         width="250"
         height="20"
         opacity=".5"
         fill="LightGray"/>
   <rect x=" 0"
         y="-180"
         width="125"
         height="20"
         opacity=".5"
         fill="DarkSlateGray"/>
   <rect x=" 0"
         y="-210"
         width="166.66666666666663"
         height="20"
         opacity=".5"
         fill="WhiteSmoke"/>
   <rect x=" 0"
         y="-210"
         width="0"
         height="20"
         opacity=".5"
         fill="LightGray"/>
   <rect x=" 0"
         y="-210"
         width="0"
         height="20"
         opacity=".5"
         fill="DarkSlateGray"/>
   <rect x=" 0"
         y="-240"
         width="0"
         height="20"
         opacity=".5"
         fill="WhiteSmoke"/>
   <rect x=" 0"
         y="-240"
         width="0"
         height="20"
         opacity=".5"
         fill="LightGray"/>
   <rect x=" 0"
         y="-240"
         width="0"
         height="20"
         opacity=".5"
         fill="DarkSlateGray"/>
   <rect x=" 0"
         y="-270"
         width="437.5"
         height="20"
         opacity=".5"
         fill="WhiteSmoke"/>
   <rect x=" 0"
         y="-270"
         width="125"
         height="20"
         opacity=".5"
         fill="LightGray"/>
   <rect x=" 0"
         y="-270"
         width="62.5"
         height="20"
         opacity=".5"
         fill="DarkSlateGray"/>
   <rect x=" 0"
         y="-300"
         width="583.3333333333334"
         height="20"
         opacity=".5"
         fill="WhiteSmoke"/>
   <rect x=" 0"
         y="-300"
         width="166.66666666666663"
         height="20"
         opacity=".5"
         fill="LightGray"/>
   <rect x=" 0"
         y="-300"
         width="83.33333333333331"
         height="20"
         opacity=".5"
         fill="DarkSlateGray"/>
   <rect x=" 0"
         y="-330"
         width="437.5"
         height="20"
         opacity=".5"
         fill="WhiteSmoke"/>
   <rect x=" 0"
         y="-330"
         width="125"
         height="20"
         opacity=".5"
         fill="LightGray"/>
   <rect x=" 0"
         y="-330"
         width="62.5"
         height="20"
         opacity=".5"
         fill="DarkSlateGray"/>
   <rect x=" 0"
         y="-360"
         width="214.28571428571428"
         height="20"
         opacity=".5"
         fill="WhiteSmoke"/>
   <rect x=" 0"
         y="-360"
         width="142.85714285714283"
         height="20"
         opacity=".5"
         fill="LightGray"/>
   <rect x=" 0"
         y="-360"
         width="71.42857142857142"
         height="20"
         opacity=".5"
         fill="DarkSlateGray"/>
   <rect x=" 0"
         y="-390"
         width="500"
         height="20"
         opacity=".5"
         fill="WhiteSmoke"/>
   <rect x=" 0"
         y="-390"
         width="0"
         height="20"
         opacity=".5"
         fill="LightGray"/>
   <rect x=" 0"
         y="-390"
         width="0"
         height="20"
         opacity=".5"
         fill="DarkSlateGray"/>
   <rect x=" 0"
         y="-420"
         width="333.33333333333326"
         height="20"
         opacity=".5"
         fill="WhiteSmoke"/>
   <rect x=" 0"
         y="-420"
         width="83.33333333333331"
         height="20"
         opacity=".5"
         fill="LightGray"/>
   <rect x=" 0"
         y="-420"
         width="41.66666666666666"
         height="20"
         opacity=".5"
         fill="DarkSlateGray"/>
   <rect x=" 0"
         y="-450"
         width="750"
         height="20"
         opacity=".5"
         fill="WhiteSmoke"/>
   <rect x=" 0"
         y="-450"
         width="500"
         height="20"
         opacity=".5"
         fill="LightGray"/>
   <rect x=" 0"
         y="-450"
         width="250"
         height="20"
         opacity=".5"
         fill="DarkSlateGray"/>
   <rect x=" 0"
         y="-480"
         width="500"
         height="20"
         opacity=".5"
         fill="WhiteSmoke"/>
   <rect x=" 0"
         y="-480"
         width="0"
         height="20"
         opacity=".5"
         fill="LightGray"/>
   <rect x=" 0"
         y="-480"
         width="0"
         height="20"
         opacity=".5"
         fill="DarkSlateGray"/>
   <rect x=" 0"
         y="-510"
         width="500"
         height="20"
         opacity=".5"
         fill="WhiteSmoke"/>
   <rect x=" 0"
         y="-510"
         width="0"
         height="20"
         opacity=".5"
         fill="LightGray"/>
   <rect x=" 0"
         y="-510"
         width="0"
         height="20"
         opacity=".5"
         fill="DarkSlateGray"/>
   <rect x=" 0"
         y="-540"
         width="250"
         height="20"
         opacity=".5"
         fill="WhiteSmoke"/>
   <rect x=" 0"
         y="-540"
         width="0"
         height="20"
         opacity=".5"
         fill="LightGray"/>
   <rect x=" 0"
         y="-540"
         width="0"
         height="20"
         opacity=".5"
         fill="DarkSlateGray"/>
   <rect x=" 0"
         y="-570"
         width="0"
         height="20"
         opacity=".5"
         fill="WhiteSmoke"/>
   <rect x=" 0"
         y="-570"
         width="0"
         height="20"
         opacity=".5"
         fill="LightGray"/>
   <rect x=" 0"
         y="-570"
         width="0"
         height="20"
         opacity=".5"
         fill="DarkSlateGray"/>
   <rect x=" 0"
         y="-600"
         width="833.3333333333335"
         height="20"
         opacity=".5"
         fill="WhiteSmoke"/>
   <rect x=" 0"
         y="-600"
         width="666.6666666666665"
         height="20"
         opacity=".5"
         fill="LightGray"/>
   <rect x=" 0"
         y="-600"
         width="333.33333333333326"
         height="20"
         opacity=".5"
         fill="DarkSlateGray"/>
   <rect x=" 0"
         y="-630"
         width="0"
         height="20"
         opacity=".5"
         fill="WhiteSmoke"/>
   <rect x=" 0"
         y="-630"
         width="0"
         height="20"
         opacity=".5"
         fill="LightGray"/>
   <rect x=" 0"
         y="-630"
         width="0"
         height="20"
         opacity=".5"
         fill="DarkSlateGray"/>
   <rect x=" 0"
         y="-660"
         width="500"
         height="20"
         opacity=".5"
         fill="WhiteSmoke"/>
   <rect x=" 0"
         y="-660"
         width="0"
         height="20"
         opacity=".5"
         fill="LightGray"/>
   <rect x=" 0"
         y="-660"
         width="0"
         height="20"
         opacity=".5"
         fill="DarkSlateGray"/>
   <rect x=" 0"
         y="-690"
         width="250"
         height="20"
         opacity=".5"
         fill="WhiteSmoke"/>
   <rect x=" 0"
         y="-690"
         width="0"
         height="20"
         opacity=".5"
         fill="LightGray"/>
   <rect x=" 0"
         y="-690"
         width="0"
         height="20"
         opacity=".5"
         fill="DarkSlateGray"/>
   <rect x=" 0"
         y="-720"
         width="250"
         height="20"
         opacity=".5"
         fill="WhiteSmoke"/>
   <rect x=" 0"
         y="-720"
         width="0"
         height="20"
         opacity=".5"
         fill="LightGray"/>
   <rect x=" 0"
         y="-720"
         width="0"
         height="20"
         opacity=".5"
         fill="DarkSlateGray"/>
   <rect x=" 0"
         y="-750"
         width="500"
         height="20"
         opacity=".5"
         fill="WhiteSmoke"/>
   <rect x=" 0"
         y="-750"
         width="0"
         height="20"
         opacity=".5"
         fill="LightGray"/>
   <rect x=" 0"
         y="-750"
         width="0"
         height="20"
         opacity=".5"
         fill="DarkSlateGray"/>
   <rect x=" 0"
         y="-780"
         width="250"
         height="20"
         opacity=".5"
         fill="WhiteSmoke"/>
   <rect x=" 0"
         y="-780"
         width="0"
         height="20"
         opacity=".5"
         fill="LightGray"/>
   <rect x=" 0"
         y="-780"
         width="0"
         height="20"
         opacity=".5"
         fill="DarkSlateGray"/>
   <rect x=" 0"
         y="-810"
         width="1000"
         height="20"
         opacity=".5"
         fill="WhiteSmoke"/>
   <rect x=" 0"
         y="-810"
         width="1000"
         height="20"
         opacity=".5"
         fill="LightGray"/>
   <rect x=" 0"
         y="-810"
         width="500"
         height="20"
         opacity=".5"
         fill="DarkSlateGray"/>
   <rect x=" 0"
         y="-840"
         width="500"
         height="20"
         opacity=".5"
         fill="WhiteSmoke"/>
   <rect x=" 0"
         y="-840"
         width="0"
         height="20"
         opacity=".5"
         fill="LightGray"/>
   <rect x=" 0"
         y="-840"
         width="0"
         height="20"
         opacity=".5"
         fill="DarkSlateGray"/>
   <rect x=" 0"
         y="-870"
         width="0"
         height="20"
         opacity=".5"
         fill="WhiteSmoke"/>
   <rect x=" 0"
         y="-870"
         width="0"
         height="20"
         opacity=".5"
         fill="LightGray"/>
   <rect x=" 0"
         y="-870"
         width="0"
         height="20"
         opacity=".5"
         fill="DarkSlateGray"/>
   <rect x=" 0"
         y="-900"
         width="500"
         height="20"
         opacity=".5"
         fill="WhiteSmoke"/>
   <rect x=" 0"
         y="-900"
         width="333.33333333333326"
         height="20"
         opacity=".5"
         fill="LightGray"/>
   <rect x=" 0"
         y="-900"
         width="166.66666666666663"
         height="20"
         opacity=".5"
         fill="DarkSlateGray"/>
   <rect x=" 0"
         y="-930"
         width="1000"
         height="20"
         opacity=".5"
         fill="WhiteSmoke"/>
   <rect x=" 0"
         y="-930"
         width="1000"
         height="20"
         opacity=".5"
         fill="LightGray"/>
   <rect x=" 0"
         y="-930"
         width="500"
         height="20"
         opacity=".5"
         fill="DarkSlateGray"/>
   <rect x=" 0"
         y="-960"
         width="500"
         height="20"
         opacity=".5"
         fill="WhiteSmoke"/>
   <rect x=" 0"
         y="-960"
         width="0"
         height="20"
         opacity=".5"
         fill="LightGray"/>
   <rect x=" 0"
         y="-960"
         width="0"
         height="20"
         opacity=".5"
         fill="DarkSlateGray"/>
   <rect x=" 0"
         y="-990"
         width="437.5"
         height="20"
         opacity=".5"
         fill="WhiteSmoke"/>
   <rect x=" 0"
         y="-990"
         width="250"
         height="20"
         opacity=".5"
         fill="LightGray"/>
   <rect x=" 0"
         y="-990"
         width="125"
         height="20"
         opacity=".5"
         fill="DarkSlateGray"/>
   <rect x=" 0"
         y="-1020"
         width="375"
         height="20"
         opacity=".5"
         fill="WhiteSmoke"/>
   <rect x=" 0"
         y="-1020"
         width="166.66666666666663"
         height="20"
         opacity=".5"
         fill="LightGray"/>
   <rect x=" 0"
         y="-1020"
         width="83.33333333333331"
         height="20"
         opacity=".5"
         fill="DarkSlateGray"/>
   <rect x=" 0"
         y="-1050"
         width="400"
         height="20"
         opacity=".5"
         fill="WhiteSmoke"/>
   <rect x=" 0"
         y="-1050"
         width="100"
         height="20"
         opacity=".5"
         fill="LightGray"/>
   <rect x=" 0"
         y="-1050"
         width="50"
         height="20"
         opacity=".5"
         fill="DarkSlateGray"/>
   <rect x=" 0"
         y="-1080"
         width="346.15384615384613"
         height="20"
         opacity=".5"
         fill="WhiteSmoke"/>
   <rect x=" 0"
         y="-1080"
         width="230.76923076923077"
         height="20"
         opacity=".5"
         fill="LightGray"/>
   <rect x=" 0"
         y="-1080"
         width="115.38461538461539"
         height="20"
         opacity=".5"
         fill="DarkSlateGray"/>
   <rect x=" 0"
         y="-1110"
         width="230.76923076923077"
         height="20"
         opacity=".5"
         fill="WhiteSmoke"/>
   <rect x=" 0"
         y="-1110"
         width="153.84615384615384"
         height="20"
         opacity=".5"
         fill="LightGray"/>
   <rect x=" 0"
         y="-1110"
         width="76.92307692307692"
         height="20"
         opacity=".5"
         fill="DarkSlateGray"/>
   <rect x=" 0"
         y="-1140"
         width="333.33333333333326"
         height="20"
         opacity=".5"
         fill="WhiteSmoke"/>
   <rect x=" 0"
         y="-1140"
         width="166.66666666666663"
         height="20"
         opacity=".5"
         fill="LightGray"/>
   <rect x=" 0"
         y="-1140"
         width="83.33333333333331"
         height="20"
         opacity=".5"
         fill="DarkSlateGray"/>
   <rect x=" 0"
         y="-1170"
         width="900"
         height="20"
         opacity=".5"
         fill="WhiteSmoke"/>
   <rect x=" 0"
         y="-1170"
         width="800"
         height="20"
         opacity=".5"
         fill="LightGray"/>
   <rect x=" 0"
         y="-1170"
         width="400"
         height="20"
         opacity=".5"
         fill="DarkSlateGray"/>
   <rect x=" 0"
         y="-1200"
         width="615.3846153846154"
         height="20"
         opacity=".5"
         fill="WhiteSmoke"/>
   <rect x=" 0"
         y="-1200"
         width="307.6923076923077"
         height="20"
         opacity=".5"
         fill="LightGray"/>
   <rect x=" 0"
         y="-1200"
         width="153.84615384615384"
         height="20"
         opacity=".5"
         fill="DarkSlateGray"/>
   <rect x=" 0"
         y="-1230"
         width="500"
         height="20"
         opacity=".5"
         fill="WhiteSmoke"/>
   <rect x=" 0"
         y="-1230"
         width="300"
         height="20"
         opacity=".5"
         fill="LightGray"/>
   <rect x=" 0"
         y="-1230"
         width="150"
         height="20"
         opacity=".5"
         fill="DarkSlateGray"/>
   <rect x=" 0"
         y="-1260"
         width="555.5555555555555"
         height="20"
         opacity=".5"
         fill="WhiteSmoke"/>
   <rect x=" 0"
         y="-1260"
         width="444.44444444444446"
         height="20"
         opacity=".5"
         fill="LightGray"/>
   <rect x=" 0"
         y="-1260"
         width="222.22222222222223"
         height="20"
         opacity=".5"
         fill="DarkSlateGray"/>
   <rect x=" 0"
         y="-1290"
         width="750"
         height="20"
         opacity=".5"
         fill="WhiteSmoke"/>
   <rect x=" 0"
         y="-1290"
         width="500"
         height="20"
         opacity=".5"
         fill="LightGray"/>
   <rect x=" 0"
         y="-1290"
         width="250"
         height="20"
         opacity=".5"
         fill="DarkSlateGray"/>
   <rect x=" 0"
         y="-1320"
         width="500"
         height="20"
         opacity=".5"
         fill="WhiteSmoke"/>
   <rect x=" 0"
         y="-1320"
         width="333.33333333333326"
         height="20"
         opacity=".5"
         fill="LightGray"/>
   <rect x=" 0"
         y="-1320"
         width="166.66666666666663"
         height="20"
         opacity=".5"
         fill="DarkSlateGray"/>
   <rect x=" 0"
         y="-1350"
         width="333.33333333333326"
         height="20"
         opacity=".5"
         fill="WhiteSmoke"/>
   <rect x=" 0"
         y="-1350"
         width="333.33333333333326"
         height="20"
         opacity=".5"
         fill="LightGray"/>
   <rect x=" 0"
         y="-1350"
         width="166.66666666666663"
         height="20"
         opacity=".5"
         fill="DarkSlateGray"/>
   <rect x=" 0"
         y="-1380"
         width="500"
         height="20"
         opacity=".5"
         fill="WhiteSmoke"/>
   <rect x=" 0"
         y="-1380"
         width="0"
         height="20"
         opacity=".5"
         fill="LightGray"/>
   <rect x=" 0"
         y="-1380"
         width="0"
         height="20"
         opacity=".5"
         fill="DarkSlateGray"/>
   <rect x=" 0"
         y="-1410"
         width="500"
         height="20"
         opacity=".5"
         fill="WhiteSmoke"/>
   <rect x=" 0"
         y="-1410"
         width="250"
         height="20"
         opacity=".5"
         fill="LightGray"/>
   <rect x=" 0"
         y="-1410"
         width="125"
         height="20"
         opacity=".5"
         fill="DarkSlateGray"/>
   <rect x=" 0"
         y="-1440"
         width="214.28571428571428"
         height="20"
         opacity=".5"
         fill="WhiteSmoke"/>
   <rect x=" 0"
         y="-1440"
         width="142.85714285714283"
         height="20"
         opacity=".5"
         fill="LightGray"/>
   <rect x=" 0"
         y="-1440"
         width="71.42857142857142"
         height="20"
         opacity=".5"
         fill="DarkSlateGray"/>
   <line x1="0" y1="0" x2="0" y2="-1470" stroke="black"/>
   <line x1="0" y1="0" x2="550" y2="0" stroke="black"/>
</svg>
