<?xml version="1.0" encoding="UTF-8"?>
<svg xmlns="http://www.w3.org/2000/svg"
     height="1570"
     width="600"
     viewBox="-150, -1620, 750, 1895">
   <rect x=" 0"
         y="-30"
         width="500"
         height="20"
         opacity=".5"
         fill="green"/>
   <text x="480" y="-18" text-anchor="end" dominant-baseline="middle">50</text>
   <rect x=" 0"
         y="-30"
         width="250"
         height="20"
         opacity=".5"
         fill="yellow"/>
   <text x="230" y="-18" text-anchor="end" dominant-baseline="middle">50</text>
   <rect x=" 0"
         y="-30"
         width="0"
         height="20"
         opacity=".5"
         fill="red"/>
   <text x="-80" y="-15" fill="black">1915-08-06</text>
   <rect x=" 0"
         y="-60"
         width="500"
         height="20"
         opacity=".5"
         fill="green"/>
   <text x="480" y="-48" text-anchor="end" dominant-baseline="middle">63</text>
   <rect x=" 0"
         y="-60"
         width="187.5"
         height="20"
         opacity=".5"
         fill="yellow"/>
   <text x="167.5" y="-48" text-anchor="end" dominant-baseline="middle">13</text>
   <rect x=" 0"
         y="-60"
         width="125"
         height="20"
         opacity=".5"
         fill="red"/>
   <text x="105" y="-48" text-anchor="end" dominant-baseline="middle">25</text>
   <text x="-80" y="-45" fill="black">1916-01-01</text>
   <rect x=" 0"
         y="-90"
         width="500"
         height="20"
         opacity=".5"
         fill="green"/>
   <rect x=" 0"
         y="-90"
         width="500"
         height="20"
         opacity=".5"
         fill="yellow"/>
   <rect x=" 0"
         y="-90"
         width="500"
         height="20"
         opacity=".5"
         fill="red"/>
   <text x="480" y="-78" text-anchor="end" dominant-baseline="middle">100</text>
   <text x="-80" y="-75" fill="black">1916-01-01</text>
   <rect x=" 0"
         y="-120"
         width="500"
         height="20"
         opacity=".5"
         fill="green"/>
   <text x="480" y="-108" text-anchor="end" dominant-baseline="middle">25</text>
   <rect x=" 0"
         y="-120"
         width="375"
         height="20"
         opacity=".5"
         fill="yellow"/>
   <text x="355" y="-108" text-anchor="end" dominant-baseline="middle">25</text>
   <rect x=" 0"
         y="-120"
         width="250"
         height="20"
         opacity=".5"
         fill="red"/>
   <text x="230" y="-108" text-anchor="end" dominant-baseline="middle">50</text>
   <text x="-80" y="-105" fill="black">1916-01-18</text>
   <rect x=" 0"
         y="-150"
         width="500"
         height="20"
         opacity=".5"
         fill="green"/>
   <rect x=" 0"
         y="-150"
         width="500"
         height="20"
         opacity=".5"
         fill="yellow"/>
   <text x="480" y="-138" text-anchor="end" dominant-baseline="middle">100</text>
   <rect x=" 0"
         y="-150"
         width="0"
         height="20"
         opacity=".5"
         fill="red"/>
   <text x="-80" y="-135" fill="black">1916-02-04</text>
   <rect x=" 0"
         y="-180"
         width="500"
         height="20"
         opacity=".5"
         fill="green"/>
   <text x="480" y="-168" text-anchor="end" dominant-baseline="middle">14</text>
   <rect x=" 0"
         y="-180"
         width="428.57142857142856"
         height="20"
         opacity=".5"
         fill="yellow"/>
   <text x="408.57142857142856"
         y="-168"
         text-anchor="end"
         dominant-baseline="middle">14</text>
   <rect x=" 0"
         y="-180"
         width="357.14285714285717"
         height="20"
         opacity=".5"
         fill="red"/>
   <text x="337.14285714285717"
         y="-168"
         text-anchor="end"
         dominant-baseline="middle">71</text>
   <text x="-80" y="-165" fill="black">1916-02-16</text>
   <rect x=" 0"
         y="-210"
         width="500"
         height="20"
         opacity=".5"
         fill="green"/>
   <rect x=" 0"
         y="-210"
         width="500"
         height="20"
         opacity=".5"
         fill="yellow"/>
   <rect x=" 0"
         y="-210"
         width="500"
         height="20"
         opacity=".5"
         fill="red"/>
   <text x="480" y="-198" text-anchor="end" dominant-baseline="middle">100</text>
   <text x="-80" y="-195" fill="black">1916-03-15</text>
   <rect x=" 0"
         y="-240"
         width="500"
         height="20"
         opacity=".5"
         fill="green"/>
   <text x="480" y="-228" text-anchor="end" dominant-baseline="middle">50</text>
   <rect x=" 0"
         y="-240"
         width="250"
         height="20"
         opacity=".5"
         fill="yellow"/>
   <rect x=" 0"
         y="-240"
         width="250"
         height="20"
         opacity=".5"
         fill="red"/>
   <text x="230" y="-228" text-anchor="end" dominant-baseline="middle">50</text>
   <text x="-80" y="-225" fill="black">1916-03-17</text>
   <rect x=" 0"
         y="-270"
         width="500"
         height="20"
         opacity=".5"
         fill="green"/>
   <text x="480" y="-258" text-anchor="end" dominant-baseline="middle">23</text>
   <rect x=" 0"
         y="-270"
         width="384.61538461538464"
         height="20"
         opacity=".5"
         fill="yellow"/>
   <text x="364.61538461538464"
         y="-258"
         text-anchor="end"
         dominant-baseline="middle">23</text>
   <rect x=" 0"
         y="-270"
         width="269.2307692307692"
         height="20"
         opacity=".5"
         fill="red"/>
   <text x="249.23076923076923"
         y="-258"
         text-anchor="end"
         dominant-baseline="middle">54</text>
   <text x="-80" y="-255" fill="black">1916-03-19</text>
   <rect x=" 0"
         y="-300"
         width="500"
         height="20"
         opacity=".5"
         fill="green"/>
   <text x="480" y="-288" text-anchor="end" dominant-baseline="middle">100</text>
   <rect x=" 0"
         y="-300"
         width="0"
         height="20"
         opacity=".5"
         fill="yellow"/>
   <rect x=" 0"
         y="-300"
         width="0"
         height="20"
         opacity=".5"
         fill="red"/>
   <text x="-80" y="-285" fill="black">1916-04-05</text>
   <rect x=" 0"
         y="-330"
         width="500"
         height="20"
         opacity=".5"
         fill="green"/>
   <rect x=" 0"
         y="-330"
         width="500"
         height="20"
         opacity=".5"
         fill="yellow"/>
   <text x="480" y="-318" text-anchor="end" dominant-baseline="middle">33</text>
   <rect x=" 0"
         y="-330"
         width="333.33333333333326"
         height="20"
         opacity=".5"
         fill="red"/>
   <text x="313.33333333333326"
         y="-318"
         text-anchor="end"
         dominant-baseline="middle">67</text>
   <text x="-80" y="-315" fill="black">1916-04-06</text>
   <rect x=" 0"
         y="-360"
         width="500"
         height="20"
         opacity=".5"
         fill="green"/>
   <text x="480" y="-348" text-anchor="end" dominant-baseline="middle">33</text>
   <rect x=" 0"
         y="-360"
         width="333.33333333333326"
         height="20"
         opacity=".5"
         fill="yellow"/>
   <text x="313.33333333333326"
         y="-348"
         text-anchor="end"
         dominant-baseline="middle">33</text>
   <rect x=" 0"
         y="-360"
         width="166.66666666666663"
         height="20"
         opacity=".5"
         fill="red"/>
   <text x="146.66666666666663"
         y="-348"
         text-anchor="end"
         dominant-baseline="middle">33</text>
   <text x="-80" y="-345" fill="black">1916-04-21</text>
   <rect x=" 0"
         y="-390"
         width="500"
         height="20"
         opacity=".5"
         fill="green"/>
   <text x="480" y="-378" text-anchor="end" dominant-baseline="middle">33</text>
   <rect x=" 0"
         y="-390"
         width="333.33333333333326"
         height="20"
         opacity=".5"
         fill="yellow"/>
   <rect x=" 0"
         y="-390"
         width="333.33333333333326"
         height="20"
         opacity=".5"
         fill="red"/>
   <text x="313.33333333333326"
         y="-378"
         text-anchor="end"
         dominant-baseline="middle">67</text>
   <text x="-80" y="-375" fill="black">1916-05-06</text>
   <rect x=" 0"
         y="-420"
         width="500"
         height="20"
         opacity=".5"
         fill="green"/>
   <text x="480" y="-408" text-anchor="end" dominant-baseline="middle">50</text>
   <rect x=" 0"
         y="-420"
         width="250"
         height="20"
         opacity=".5"
         fill="yellow"/>
   <text x="230" y="-408" text-anchor="end" dominant-baseline="middle">25</text>
   <rect x=" 0"
         y="-420"
         width="125"
         height="20"
         opacity=".5"
         fill="red"/>
   <text x="105" y="-408" text-anchor="end" dominant-baseline="middle">25</text>
   <text x="-80" y="-405" fill="black">1916-05-28</text>
   <rect x=" 0"
         y="-450"
         width="500"
         height="20"
         opacity=".5"
         fill="green"/>
   <text x="480" y="-438" text-anchor="end" dominant-baseline="middle">33</text>
   <rect x=" 0"
         y="-450"
         width="333.33333333333326"
         height="20"
         opacity=".5"
         fill="yellow"/>
   <text x="313.33333333333326"
         y="-438"
         text-anchor="end"
         dominant-baseline="middle">67</text>
   <rect x=" 0"
         y="-450"
         width="0"
         height="20"
         opacity=".5"
         fill="red"/>
   <text x="-80" y="-435" fill="black">1916-06-08</text>
   <rect x=" 0"
         y="-480"
         width="500"
         height="20"
         opacity=".5"
         fill="green"/>
   <text x="480" y="-468" text-anchor="end" dominant-baseline="middle">33</text>
   <rect x=" 0"
         y="-480"
         width="333.33333333333326"
         height="20"
         opacity=".5"
         fill="yellow"/>
   <rect x=" 0"
         y="-480"
         width="333.33333333333326"
         height="20"
         opacity=".5"
         fill="red"/>
   <text x="313.33333333333326"
         y="-468"
         text-anchor="end"
         dominant-baseline="middle">67</text>
   <text x="-80" y="-465" fill="black">1916-06-23</text>
   <rect x=" 0"
         y="-510"
         width="500"
         height="20"
         opacity=".5"
         fill="green"/>
   <text x="480" y="-498" text-anchor="end" dominant-baseline="middle">50</text>
   <rect x=" 0"
         y="-510"
         width="250"
         height="20"
         opacity=".5"
         fill="yellow"/>
   <text x="230" y="-498" text-anchor="end" dominant-baseline="middle">50</text>
   <rect x=" 0"
         y="-510"
         width="0"
         height="20"
         opacity=".5"
         fill="red"/>
   <text x="-80" y="-495" fill="black">1916-07-13</text>
   <rect x=" 0"
         y="-540"
         width="500"
         height="20"
         opacity=".5"
         fill="green"/>
   <rect x=" 0"
         y="-540"
         width="500"
         height="20"
         opacity=".5"
         fill="yellow"/>
   <rect x=" 0"
         y="-540"
         width="500"
         height="20"
         opacity=".5"
         fill="red"/>
   <text x="480" y="-528" text-anchor="end" dominant-baseline="middle">100</text>
   <text x="-80" y="-525" fill="black">1916-07-16</text>
   <rect x=" 0"
         y="-570"
         width="500"
         height="20"
         opacity=".5"
         fill="green"/>
   <text x="480" y="-558" text-anchor="end" dominant-baseline="middle">50</text>
   <rect x=" 0"
         y="-570"
         width="250"
         height="20"
         opacity=".5"
         fill="yellow"/>
   <rect x=" 0"
         y="-570"
         width="250"
         height="20"
         opacity=".5"
         fill="red"/>
   <text x="230" y="-558" text-anchor="end" dominant-baseline="middle">50</text>
   <text x="-80" y="-555" fill="black">1916-07-24</text>
   <rect x=" 0"
         y="-600"
         width="500"
         height="20"
         opacity=".5"
         fill="green"/>
   <text x="480" y="-588" text-anchor="end" dominant-baseline="middle">44</text>
   <rect x=" 0"
         y="-600"
         width="277.77777777777777"
         height="20"
         opacity=".5"
         fill="yellow"/>
   <rect x=" 0"
         y="-600"
         width="277.77777777777777"
         height="20"
         opacity=".5"
         fill="red"/>
   <text x="257.77777777777777"
         y="-588"
         text-anchor="end"
         dominant-baseline="middle">56</text>
   <text x="-80" y="-585" fill="black">1916-08-18</text>
   <rect x=" 0"
         y="-630"
         width="500"
         height="20"
         opacity=".5"
         fill="green"/>
   <text x="480" y="-618" text-anchor="end" dominant-baseline="middle">83</text>
   <rect x=" 0"
         y="-630"
         width="83.33333333333331"
         height="20"
         opacity=".5"
         fill="yellow"/>
   <text x="63.333333333333314"
         y="-618"
         text-anchor="end"
         dominant-baseline="middle">17</text>
   <rect x=" 0"
         y="-630"
         width="0"
         height="20"
         opacity=".5"
         fill="red"/>
   <text x="-80" y="-615" fill="black">1916-08-23</text>
   <rect x=" 0"
         y="-660"
         width="500"
         height="20"
         opacity=".5"
         fill="green"/>
   <text x="480" y="-648" text-anchor="end" dominant-baseline="middle">100</text>
   <rect x=" 0"
         y="-660"
         width="0"
         height="20"
         opacity=".5"
         fill="yellow"/>
   <rect x=" 0"
         y="-660"
         width="0"
         height="20"
         opacity=".5"
         fill="red"/>
   <text x="-80" y="-645" fill="black">1916-09-03</text>
   <rect x=" 0"
         y="-690"
         width="500"
         height="20"
         opacity=".5"
         fill="green"/>
   <text x="480" y="-678" text-anchor="end" dominant-baseline="middle">50</text>
   <rect x=" 0"
         y="-690"
         width="250"
         height="20"
         opacity=".5"
         fill="yellow"/>
   <rect x=" 0"
         y="-690"
         width="250"
         height="20"
         opacity=".5"
         fill="red"/>
   <text x="230" y="-678" text-anchor="end" dominant-baseline="middle">50</text>
   <text x="-80" y="-675" fill="black">1916-10-26</text>
   <rect x=" 0"
         y="-720"
         width="500"
         height="20"
         opacity=".5"
         fill="green"/>
   <text x="480" y="-708" text-anchor="end" dominant-baseline="middle">100</text>
   <rect x=" 0"
         y="-720"
         width="0"
         height="20"
         opacity=".5"
         fill="yellow"/>
   <rect x=" 0"
         y="-720"
         width="0"
         height="20"
         opacity=".5"
         fill="red"/>
   <text x="-80" y="-705" fill="black">1916-11-04</text>
   <rect x=" 0"
         y="-750"
         width="500"
         height="20"
         opacity=".5"
         fill="green"/>
   <text x="480" y="-738" text-anchor="end" dominant-baseline="middle">60</text>
   <rect x=" 0"
         y="-750"
         width="200"
         height="20"
         opacity=".5"
         fill="yellow"/>
   <text x="180" y="-738" text-anchor="end" dominant-baseline="middle">10</text>
   <rect x=" 0"
         y="-750"
         width="150"
         height="20"
         opacity=".5"
         fill="red"/>
   <text x="130" y="-738" text-anchor="end" dominant-baseline="middle">30</text>
   <text x="-80" y="-735" fill="black">1916-11-19</text>
   <rect x=" 0"
         y="-780"
         width="500"
         height="20"
         opacity=".5"
         fill="green"/>
   <text x="480" y="-768" text-anchor="end" dominant-baseline="middle">63</text>
   <rect x=" 0"
         y="-780"
         width="187.5"
         height="20"
         opacity=".5"
         fill="yellow"/>
   <text x="167.5" y="-768" text-anchor="end" dominant-baseline="middle">13</text>
   <rect x=" 0"
         y="-780"
         width="125"
         height="20"
         opacity=".5"
         fill="red"/>
   <text x="105" y="-768" text-anchor="end" dominant-baseline="middle">25</text>
   <text x="-80" y="-765" fill="black">1916-11-23</text>
   <rect x=" 0"
         y="-810"
         width="500"
         height="20"
         opacity=".5"
         fill="green"/>
   <text x="480" y="-798" text-anchor="end" dominant-baseline="middle">50</text>
   <rect x=" 0"
         y="-810"
         width="250"
         height="20"
         opacity=".5"
         fill="yellow"/>
   <rect x=" 0"
         y="-810"
         width="250"
         height="20"
         opacity=".5"
         fill="red"/>
   <text x="230" y="-798" text-anchor="end" dominant-baseline="middle">50</text>
   <text x="-80" y="-795" fill="black">1916-11-29</text>
   <rect x=" 0"
         y="-840"
         width="500"
         height="20"
         opacity=".5"
         fill="green"/>
   <text x="480" y="-828" text-anchor="end" dominant-baseline="middle">42</text>
   <rect x=" 0"
         y="-840"
         width="291.6666666666667"
         height="20"
         opacity=".5"
         fill="yellow"/>
   <text x="271.6666666666667"
         y="-828"
         text-anchor="end"
         dominant-baseline="middle">17</text>
   <rect x=" 0"
         y="-840"
         width="208.33333333333337"
         height="20"
         opacity=".5"
         fill="red"/>
   <text x="188.33333333333337"
         y="-828"
         text-anchor="end"
         dominant-baseline="middle">42</text>
   <text x="-80" y="-825" fill="black">1917-01-05</text>
   <rect x=" 0"
         y="-870"
         width="500"
         height="20"
         opacity=".5"
         fill="green"/>
   <rect x=" 0"
         y="-870"
         width="500"
         height="20"
         opacity=".5"
         fill="yellow"/>
   <rect x=" 0"
         y="-870"
         width="500"
         height="20"
         opacity=".5"
         fill="red"/>
   <text x="480" y="-858" text-anchor="end" dominant-baseline="middle">100</text>
   <text x="-80" y="-855" fill="black">1917-01-14</text>
   <rect x=" 0"
         y="-900"
         width="500"
         height="20"
         opacity=".5"
         fill="green"/>
   <text x="480" y="-888" text-anchor="end" dominant-baseline="middle">100</text>
   <rect x=" 0"
         y="-900"
         width="0"
         height="20"
         opacity=".5"
         fill="yellow"/>
   <rect x=" 0"
         y="-900"
         width="0"
         height="20"
         opacity=".5"
         fill="red"/>
   <text x="-80" y="-885" fill="black">1917-01-20</text>
   <rect x=" 0"
         y="-930"
         width="500"
         height="20"
         opacity=".5"
         fill="green"/>
   <text x="480" y="-918" text-anchor="end" dominant-baseline="middle">75</text>
   <rect x=" 0"
         y="-930"
         width="125"
         height="20"
         opacity=".5"
         fill="yellow"/>
   <text x="105" y="-918" text-anchor="end" dominant-baseline="middle">25</text>
   <rect x=" 0"
         y="-930"
         width="0"
         height="20"
         opacity=".5"
         fill="red"/>
   <text x="-80" y="-915" fill="black">1917-03-02</text>
   <rect x=" 0"
         y="-960"
         width="500"
         height="20"
         opacity=".5"
         fill="green"/>
   <rect x=" 0"
         y="-960"
         width="500"
         height="20"
         opacity=".5"
         fill="yellow"/>
   <text x="480" y="-948" text-anchor="end" dominant-baseline="middle">100</text>
   <rect x=" 0"
         y="-960"
         width="0"
         height="20"
         opacity=".5"
         fill="red"/>
   <text x="-80" y="-945" fill="black">1917-04-26</text>
   <rect x=" 0"
         y="-990"
         width="500"
         height="20"
         opacity=".5"
         fill="green"/>
   <text x="480" y="-978" text-anchor="end" dominant-baseline="middle">100</text>
   <rect x=" 0"
         y="-990"
         width="0"
         height="20"
         opacity=".5"
         fill="yellow"/>
   <rect x=" 0"
         y="-990"
         width="0"
         height="20"
         opacity=".5"
         fill="red"/>
   <text x="-80" y="-975" fill="black">1917-04-29</text>
   <rect x=" 0"
         y="-1020"
         width="500"
         height="20"
         opacity=".5"
         fill="green"/>
   <text x="480" y="-1008" text-anchor="end" dominant-baseline="middle">38</text>
   <rect x=" 0"
         y="-1020"
         width="312.5"
         height="20"
         opacity=".5"
         fill="yellow"/>
   <text x="292.5"
         y="-1008"
         text-anchor="end"
         dominant-baseline="middle">25</text>
   <rect x=" 0"
         y="-1020"
         width="187.5"
         height="20"
         opacity=".5"
         fill="red"/>
   <text x="167.5"
         y="-1008"
         text-anchor="end"
         dominant-baseline="middle">38</text>
   <text x="-80" y="-1005" fill="black">1917-07-26</text>
   <rect x=" 0"
         y="-1050"
         width="500"
         height="20"
         opacity=".5"
         fill="green"/>
   <text x="480" y="-1038" text-anchor="end" dominant-baseline="middle">33</text>
   <rect x=" 0"
         y="-1050"
         width="333.33333333333326"
         height="20"
         opacity=".5"
         fill="yellow"/>
   <text x="313.33333333333326"
         y="-1038"
         text-anchor="end"
         dominant-baseline="middle">17</text>
   <rect x=" 0"
         y="-1050"
         width="250"
         height="20"
         opacity=".5"
         fill="red"/>
   <text x="230" y="-1038" text-anchor="end" dominant-baseline="middle">50</text>
   <text x="-80" y="-1035" fill="black">1917-08-06</text>
   <rect x=" 0"
         y="-1080"
         width="500"
         height="20"
         opacity=".5"
         fill="green"/>
   <text x="480" y="-1068" text-anchor="end" dominant-baseline="middle">100</text>
   <rect x=" 0"
         y="-1080"
         width="0"
         height="20"
         opacity=".5"
         fill="yellow"/>
   <rect x=" 0"
         y="-1080"
         width="0"
         height="20"
         opacity=".5"
         fill="red"/>
   <text x="-80" y="-1065" fill="black">1917-09-01</text>
   <rect x=" 0"
         y="-1110"
         width="500"
         height="20"
         opacity=".5"
         fill="green"/>
   <text x="480" y="-1098" text-anchor="end" dominant-baseline="middle">75</text>
   <rect x=" 0"
         y="-1110"
         width="125"
         height="20"
         opacity=".5"
         fill="yellow"/>
   <rect x=" 0"
         y="-1110"
         width="125"
         height="20"
         opacity=".5"
         fill="red"/>
   <text x="105" y="-1098" text-anchor="end" dominant-baseline="middle">25</text>
   <text x="-80" y="-1095" fill="black">1917-09-07</text>
   <rect x=" 0"
         y="-1140"
         width="500"
         height="20"
         opacity=".5"
         fill="green"/>
   <text x="480" y="-1128" text-anchor="end" dominant-baseline="middle">67</text>
   <rect x=" 0"
         y="-1140"
         width="166.66666666666663"
         height="20"
         opacity=".5"
         fill="yellow"/>
   <rect x=" 0"
         y="-1140"
         width="166.66666666666663"
         height="20"
         opacity=".5"
         fill="red"/>
   <text x="146.66666666666663"
         y="-1128"
         text-anchor="end"
         dominant-baseline="middle">33</text>
   <text x="-80" y="-1125" fill="black">1917-10-16</text>
   <rect x=" 0"
         y="-1170"
         width="500"
         height="20"
         opacity=".5"
         fill="green"/>
   <text x="480" y="-1158" text-anchor="end" dominant-baseline="middle">14</text>
   <rect x=" 0"
         y="-1170"
         width="428.57142857142856"
         height="20"
         opacity=".5"
         fill="yellow"/>
   <text x="408.57142857142856"
         y="-1158"
         text-anchor="end"
         dominant-baseline="middle">14</text>
   <rect x=" 0"
         y="-1170"
         width="357.14285714285717"
         height="20"
         opacity=".5"
         fill="red"/>
   <text x="337.14285714285717"
         y="-1158"
         text-anchor="end"
         dominant-baseline="middle">71</text>
   <text x="-80" y="-1155" fill="black">1917-10-19</text>
   <rect x=" 0"
         y="-1200"
         width="500"
         height="20"
         opacity=".5"
         fill="green"/>
   <text x="480" y="-1188" text-anchor="end" dominant-baseline="middle">33</text>
   <rect x=" 0"
         y="-1200"
         width="333.33333333333326"
         height="20"
         opacity=".5"
         fill="yellow"/>
   <text x="313.33333333333326"
         y="-1188"
         text-anchor="end"
         dominant-baseline="middle">33</text>
   <rect x=" 0"
         y="-1200"
         width="166.66666666666663"
         height="20"
         opacity=".5"
         fill="red"/>
   <text x="146.66666666666663"
         y="-1188"
         text-anchor="end"
         dominant-baseline="middle">33</text>
   <text x="-80" y="-1185" fill="black">1917-12-23</text>
   <rect x=" 0"
         y="-1230"
         width="500"
         height="20"
         opacity=".5"
         fill="green"/>
   <text x="480" y="-1218" text-anchor="end" dominant-baseline="middle">20</text>
   <rect x=" 0"
         y="-1230"
         width="400"
         height="20"
         opacity=".5"
         fill="yellow"/>
   <text x="380" y="-1218" text-anchor="end" dominant-baseline="middle">80</text>
   <rect x=" 0"
         y="-1230"
         width="0"
         height="20"
         opacity=".5"
         fill="red"/>
   <text x="-80" y="-1215" fill="black">1918-04-01</text>
   <rect x=" 0"
         y="-1260"
         width="500"
         height="20"
         opacity=".5"
         fill="green"/>
   <text x="480" y="-1248" text-anchor="end" dominant-baseline="middle">100</text>
   <rect x=" 0"
         y="-1260"
         width="0"
         height="20"
         opacity=".5"
         fill="yellow"/>
   <rect x=" 0"
         y="-1260"
         width="0"
         height="20"
         opacity=".5"
         fill="red"/>
   <text x="-80" y="-1245" fill="black">1918-04-15</text>
   <rect x=" 0"
         y="-1290"
         width="500"
         height="20"
         opacity=".5"
         fill="green"/>
   <text x="480" y="-1278" text-anchor="end" dominant-baseline="middle">62</text>
   <rect x=" 0"
         y="-1290"
         width="192.30769230769232"
         height="20"
         opacity=".5"
         fill="yellow"/>
   <text x="172.30769230769232"
         y="-1278"
         text-anchor="end"
         dominant-baseline="middle">31</text>
   <rect x=" 0"
         y="-1290"
         width="38.46153846153846"
         height="20"
         opacity=".5"
         fill="red"/>
   <text x="18.46153846153846"
         y="-1278"
         text-anchor="end"
         dominant-baseline="middle">8</text>
   <text x="-80" y="-1275" fill="black">1918-05-29</text>
   <rect x=" 0"
         y="-1320"
         width="500"
         height="20"
         opacity=".5"
         fill="green"/>
   <text x="480" y="-1308" text-anchor="end" dominant-baseline="middle">40</text>
   <rect x=" 0"
         y="-1320"
         width="300"
         height="20"
         opacity=".5"
         fill="yellow"/>
   <text x="280" y="-1308" text-anchor="end" dominant-baseline="middle">30</text>
   <rect x=" 0"
         y="-1320"
         width="150"
         height="20"
         opacity=".5"
         fill="red"/>
   <text x="130" y="-1308" text-anchor="end" dominant-baseline="middle">30</text>
   <text x="-80" y="-1305" fill="black">1918-06-24</text>
   <rect x=" 0"
         y="-1350"
         width="500"
         height="20"
         opacity=".5"
         fill="green"/>
   <text x="480" y="-1338" text-anchor="end" dominant-baseline="middle">22</text>
   <rect x=" 0"
         y="-1350"
         width="388.8888888888889"
         height="20"
         opacity=".5"
         fill="yellow"/>
   <text x="368.8888888888889"
         y="-1338"
         text-anchor="end"
         dominant-baseline="middle">44</text>
   <rect x=" 0"
         y="-1350"
         width="166.66666666666663"
         height="20"
         opacity=".5"
         fill="red"/>
   <text x="146.66666666666663"
         y="-1338"
         text-anchor="end"
         dominant-baseline="middle">33</text>
   <text x="-80" y="-1335" fill="black">1918-07-31</text>
   <rect x=" 0"
         y="-1380"
         width="500"
         height="20"
         opacity=".5"
         fill="green"/>
   <text x="480" y="-1368" text-anchor="end" dominant-baseline="middle">50</text>
   <rect x=" 0"
         y="-1380"
         width="250"
         height="20"
         opacity=".5"
         fill="yellow"/>
   <text x="230" y="-1368" text-anchor="end" dominant-baseline="middle">8</text>
   <rect x=" 0"
         y="-1380"
         width="208.33333333333337"
         height="20"
         opacity=".5"
         fill="red"/>
   <text x="188.33333333333337"
         y="-1368"
         text-anchor="end"
         dominant-baseline="middle">42</text>
   <text x="-80" y="-1365" fill="black">1918-08-14</text>
   <rect x=" 0"
         y="-1410"
         width="500"
         height="20"
         opacity=".5"
         fill="green"/>
   <text x="480" y="-1398" text-anchor="end" dominant-baseline="middle">100</text>
   <rect x=" 0"
         y="-1410"
         width="0"
         height="20"
         opacity=".5"
         fill="yellow"/>
   <rect x=" 0"
         y="-1410"
         width="0"
         height="20"
         opacity=".5"
         fill="red"/>
   <text x="-80" y="-1395" fill="black">1919-08-07</text>
   <rect x=" 0"
         y="-1440"
         width="500"
         height="20"
         opacity=".5"
         fill="green"/>
   <text x="480" y="-1428" text-anchor="end" dominant-baseline="middle">50</text>
   <rect x=" 0"
         y="-1440"
         width="250"
         height="20"
         opacity=".5"
         fill="yellow"/>
   <rect x=" 0"
         y="-1440"
         width="250"
         height="20"
         opacity=".5"
         fill="red"/>
   <text x="230" y="-1428" text-anchor="end" dominant-baseline="middle">50</text>
   <text x="-80" y="-1425" fill="black">1920-07-21</text>
   <rect x=" 0"
         y="-1470"
         width="500"
         height="20"
         opacity=".5"
         fill="green"/>
   <text x="480" y="-1458" text-anchor="end" dominant-baseline="middle">15</text>
   <rect x=" 0"
         y="-1470"
         width="423.0769230769231"
         height="20"
         opacity=".5"
         fill="yellow"/>
   <text x="403.0769230769231"
         y="-1458"
         text-anchor="end"
         dominant-baseline="middle">15</text>
   <rect x=" 0"
         y="-1470"
         width="346.15384615384613"
         height="20"
         opacity=".5"
         fill="red"/>
   <text x="326.15384615384613"
         y="-1458"
         text-anchor="end"
         dominant-baseline="middle">69</text>
   <text x="-80" y="-1455" fill="black">unknown</text>
   <line x1="0" y1="0" x2="0" y2="-1520" stroke="black"/>
   <line x1="0" y1="0" x2="550" y2="0" stroke="black"/>
   <line x1="0" y1="0" x2="0" y2="10" stroke="black"/>
   <text x="0" y="20" text-anchor="end" dominant-baseline="central">0%</text>
   <line x1="125" y1="0" x2="125" y2="10" stroke="black"/>
   <text x="125" y="20" text-anchor="end" dominant-baseline="central">25%</text>
   <line x1="250" y1="0" x2="250" y2="10" stroke="black"/>
   <text x="250" y="20" text-anchor="end" dominant-baseline="central">50%</text>
   <line x1="375" y1="0" x2="375" y2="10" stroke="black"/>
   <text x="375" y="20" text-anchor="end" dominant-baseline="central">75%</text>
   <line x1="500" y1="0" x2="500" y2="10" stroke="black"/>
   <text x="500" y="20" text-anchor="end" dominant-baseline="central">100%</text>
   <text x="275" y="50" text-anchor="middle" font-size="large">Percentage of Emotive Statements </text>
   <text x="275" y="-1520" text-anchor="middle" font-size="x-large">Percentage of Emotive Statements per Letter Written</text>
</svg>
