<?xml version="1.0" encoding="UTF-8"?>
<svg xmlns="http://www.w3.org/2000/svg"
     height="1570"
     width="600"
     viewBox="-150, -1620, 750, 1895">
   <line x1="0"
         x2="550"
         y1="-35"
         y2="-35"
         stroke="black"
         stroke-dasharray="2"/>
   <text x="-5" y="-35" text-anchor="end" dominant-baseline="middle">1915</text>
   <rect x=" 0"
         y="-30"
         width="500"
         height="20"
         opacity=".5"
         fill="green"/>
   <rect x=" 0"
         y="-30"
         width="250"
         height="20"
         opacity=".5"
         fill="yellow"/>
   <rect x=" 0"
         y="-30"
         width="0"
         height="20"
         opacity=".5"
         fill="red"/>
   <text x="50" y="-40" fill="black">1915-08-06 Harold</text>
   <rect x=" 0"
         y="-60"
         width="500"
         height="20"
         opacity=".5"
         fill="green"/>
   <rect x=" 0"
         y="-60"
         width="187.5"
         height="20"
         opacity=".5"
         fill="yellow"/>
   <rect x=" 0"
         y="-60"
         width="125"
         height="20"
         opacity=".5"
         fill="red"/>
   <text x="50" y="-70" fill="black">1916-01-01 S.C.D.</text>
   <rect x=" 0"
         y="-90"
         width="500"
         height="20"
         opacity=".5"
         fill="green"/>
   <rect x=" 0"
         y="-90"
         width="500"
         height="20"
         opacity=".5"
         fill="yellow"/>
   <rect x=" 0"
         y="-90"
         width="500"
         height="20"
         opacity=".5"
         fill="red"/>
   <text x="50" y="-100" fill="black">1916-01-01 Jack P.</text>
   <rect x=" 0"
         y="-120"
         width="500"
         height="20"
         opacity=".5"
         fill="green"/>
   <rect x=" 0"
         y="-120"
         width="375"
         height="20"
         opacity=".5"
         fill="yellow"/>
   <rect x=" 0"
         y="-120"
         width="250"
         height="20"
         opacity=".5"
         fill="red"/>
   <text x="50" y="-130" fill="black">1916-01-18 H.W. Cronin</text>
   <line x1="0"
         x2="550"
         y1="-155"
         y2="-155"
         stroke="black"
         stroke-dasharray="2"/>
   <text x="-5" y="-155" text-anchor="end" dominant-baseline="middle">1916</text>
   <rect x=" 0"
         y="-150"
         width="500"
         height="20"
         opacity=".5"
         fill="green"/>
   <rect x=" 0"
         y="-150"
         width="500"
         height="20"
         opacity=".5"
         fill="yellow"/>
   <rect x=" 0"
         y="-150"
         width="0"
         height="20"
         opacity=".5"
         fill="red"/>
   <text x="50" y="-160" fill="black">1916-02-04 </text>
   <rect x=" 0"
         y="-180"
         width="500"
         height="20"
         opacity=".5"
         fill="green"/>
   <rect x=" 0"
         y="-180"
         width="428.57142857142856"
         height="20"
         opacity=".5"
         fill="yellow"/>
   <rect x=" 0"
         y="-180"
         width="357.14285714285717"
         height="20"
         opacity=".5"
         fill="red"/>
   <text x="50" y="-190" fill="black">1916-02-16 Freddy </text>
   <rect x=" 0"
         y="-210"
         width="500"
         height="20"
         opacity=".5"
         fill="green"/>
   <rect x=" 0"
         y="-210"
         width="500"
         height="20"
         opacity=".5"
         fill="yellow"/>
   <rect x=" 0"
         y="-210"
         width="500"
         height="20"
         opacity=".5"
         fill="red"/>
   <text x="50" y="-220" fill="black">1916-03-15 Will</text>
   <line x1="0"
         x2="550"
         y1="-245"
         y2="-245"
         stroke="black"
         stroke-dasharray="2"/>
   <text x="-5" y="-245" text-anchor="end" dominant-baseline="middle">1916</text>
   <rect x=" 0"
         y="-240"
         width="500"
         height="20"
         opacity=".5"
         fill="green"/>
   <rect x=" 0"
         y="-240"
         width="250"
         height="20"
         opacity=".5"
         fill="yellow"/>
   <rect x=" 0"
         y="-240"
         width="250"
         height="20"
         opacity=".5"
         fill="red"/>
   <text x="50" y="-250" fill="black">1916-03-17 Dick Mansbridge</text>
   <line x1="0"
         x2="550"
         y1="-275"
         y2="-275"
         stroke="black"
         stroke-dasharray="2"/>
   <text x="-5" y="-275" text-anchor="end" dominant-baseline="middle">1916</text>
   <rect x=" 0"
         y="-270"
         width="500"
         height="20"
         opacity=".5"
         fill="green"/>
   <rect x=" 0"
         y="-270"
         width="384.61538461538464"
         height="20"
         opacity=".5"
         fill="yellow"/>
   <rect x=" 0"
         y="-270"
         width="269.2307692307692"
         height="20"
         opacity=".5"
         fill="red"/>
   <text x="50" y="-280" fill="black">1916-03-19 Sid</text>
   <rect x=" 0"
         y="-300"
         width="500"
         height="20"
         opacity=".5"
         fill="green"/>
   <rect x=" 0"
         y="-300"
         width="0"
         height="20"
         opacity=".5"
         fill="yellow"/>
   <rect x=" 0"
         y="-300"
         width="0"
         height="20"
         opacity=".5"
         fill="red"/>
   <text x="50" y="-310" fill="black">1916-04-05 M.P. Pond</text>
   <rect x=" 0"
         y="-330"
         width="500"
         height="20"
         opacity=".5"
         fill="green"/>
   <rect x=" 0"
         y="-330"
         width="500"
         height="20"
         opacity=".5"
         fill="yellow"/>
   <rect x=" 0"
         y="-330"
         width="333.33333333333326"
         height="20"
         opacity=".5"
         fill="red"/>
   <text x="50" y="-340" fill="black">1916-04-06 Gilbert Williams</text>
   <rect x=" 0"
         y="-360"
         width="500"
         height="20"
         opacity=".5"
         fill="green"/>
   <rect x=" 0"
         y="-360"
         width="333.33333333333326"
         height="20"
         opacity=".5"
         fill="yellow"/>
   <rect x=" 0"
         y="-360"
         width="166.66666666666663"
         height="20"
         opacity=".5"
         fill="red"/>
   <text x="50" y="-370" fill="black">1916-04-21 D.J. Robertson</text>
   <rect x=" 0"
         y="-390"
         width="500"
         height="20"
         opacity=".5"
         fill="green"/>
   <rect x=" 0"
         y="-390"
         width="333.33333333333326"
         height="20"
         opacity=".5"
         fill="yellow"/>
   <rect x=" 0"
         y="-390"
         width="333.33333333333326"
         height="20"
         opacity=".5"
         fill="red"/>
   <text x="50" y="-400" fill="black">1916-05-06  Ted.</text>
   <rect x=" 0"
         y="-420"
         width="500"
         height="20"
         opacity=".5"
         fill="green"/>
   <rect x=" 0"
         y="-420"
         width="250"
         height="20"
         opacity=".5"
         fill="yellow"/>
   <rect x=" 0"
         y="-420"
         width="125"
         height="20"
         opacity=".5"
         fill="red"/>
   <text x="50" y="-430" fill="black">1916-05-28  Frank</text>
   <rect x=" 0"
         y="-450"
         width="500"
         height="20"
         opacity=".5"
         fill="green"/>
   <rect x=" 0"
         y="-450"
         width="333.33333333333326"
         height="20"
         opacity=".5"
         fill="yellow"/>
   <rect x=" 0"
         y="-450"
         width="0"
         height="20"
         opacity=".5"
         fill="red"/>
   <text x="50" y="-460" fill="black">1916-06-08 Will.</text>
   <rect x=" 0"
         y="-480"
         width="500"
         height="20"
         opacity=".5"
         fill="green"/>
   <rect x=" 0"
         y="-480"
         width="333.33333333333326"
         height="20"
         opacity=".5"
         fill="yellow"/>
   <rect x=" 0"
         y="-480"
         width="333.33333333333326"
         height="20"
         opacity=".5"
         fill="red"/>
   <text x="50" y="-490" fill="black">1916-06-23 </text>
   <line x1="0"
         x2="550"
         y1="-515"
         y2="-515"
         stroke="black"
         stroke-dasharray="2"/>
   <text x="-5" y="-515" text-anchor="end" dominant-baseline="middle">1916</text>
   <rect x=" 0"
         y="-510"
         width="500"
         height="20"
         opacity=".5"
         fill="green"/>
   <rect x=" 0"
         y="-510"
         width="250"
         height="20"
         opacity=".5"
         fill="yellow"/>
   <rect x=" 0"
         y="-510"
         width="0"
         height="20"
         opacity=".5"
         fill="red"/>
   <text x="50" y="-520" fill="black">1916-07-13 F. Turner.</text>
   <rect x=" 0"
         y="-540"
         width="500"
         height="20"
         opacity=".5"
         fill="green"/>
   <rect x=" 0"
         y="-540"
         width="500"
         height="20"
         opacity=".5"
         fill="yellow"/>
   <rect x=" 0"
         y="-540"
         width="500"
         height="20"
         opacity=".5"
         fill="red"/>
   <text x="50" y="-550" fill="black">1916-07-16 Bill.</text>
   <rect x=" 0"
         y="-570"
         width="500"
         height="20"
         opacity=".5"
         fill="green"/>
   <rect x=" 0"
         y="-570"
         width="250"
         height="20"
         opacity=".5"
         fill="yellow"/>
   <rect x=" 0"
         y="-570"
         width="250"
         height="20"
         opacity=".5"
         fill="red"/>
   <text x="50" y="-580" fill="black">1916-07-24 Private H. Bullen</text>
   <line x1="0"
         x2="550"
         y1="-605"
         y2="-605"
         stroke="black"
         stroke-dasharray="2"/>
   <text x="-5" y="-605" text-anchor="end" dominant-baseline="middle">1916</text>
   <rect x=" 0"
         y="-600"
         width="500"
         height="20"
         opacity=".5"
         fill="green"/>
   <rect x=" 0"
         y="-600"
         width="277.77777777777777"
         height="20"
         opacity=".5"
         fill="yellow"/>
   <rect x=" 0"
         y="-600"
         width="277.77777777777777"
         height="20"
         opacity=".5"
         fill="red"/>
   <text x="50" y="-610" fill="black">1916-08-18 Harry Beaumont</text>
   <rect x=" 0"
         y="-630"
         width="500"
         height="20"
         opacity=".5"
         fill="green"/>
   <rect x=" 0"
         y="-630"
         width="83.33333333333331"
         height="20"
         opacity=".5"
         fill="yellow"/>
   <rect x=" 0"
         y="-630"
         width="0"
         height="20"
         opacity=".5"
         fill="red"/>
   <text x="50" y="-640" fill="black">1916-08-23 Frosty.</text>
   <rect x=" 0"
         y="-660"
         width="500"
         height="20"
         opacity=".5"
         fill="green"/>
   <rect x=" 0"
         y="-660"
         width="0"
         height="20"
         opacity=".5"
         fill="yellow"/>
   <rect x=" 0"
         y="-660"
         width="0"
         height="20"
         opacity=".5"
         fill="red"/>
   <text x="50" y="-670" fill="black">1916-09-03 Will.</text>
   <rect x=" 0"
         y="-690"
         width="500"
         height="20"
         opacity=".5"
         fill="green"/>
   <rect x=" 0"
         y="-690"
         width="250"
         height="20"
         opacity=".5"
         fill="yellow"/>
   <rect x=" 0"
         y="-690"
         width="250"
         height="20"
         opacity=".5"
         fill="red"/>
   <text x="50" y="-700" fill="black">1916-10-26 Bill</text>
   <rect x=" 0"
         y="-720"
         width="500"
         height="20"
         opacity=".5"
         fill="green"/>
   <rect x=" 0"
         y="-720"
         width="0"
         height="20"
         opacity=".5"
         fill="yellow"/>
   <rect x=" 0"
         y="-720"
         width="0"
         height="20"
         opacity=".5"
         fill="red"/>
   <text x="50" y="-730" fill="black">1916-11-04 Herb</text>
   <rect x=" 0"
         y="-750"
         width="500"
         height="20"
         opacity=".5"
         fill="green"/>
   <rect x=" 0"
         y="-750"
         width="200"
         height="20"
         opacity=".5"
         fill="yellow"/>
   <rect x=" 0"
         y="-750"
         width="150"
         height="20"
         opacity=".5"
         fill="red"/>
   <text x="50" y="-760" fill="black">1916-11-19 A. Smith</text>
   <line x1="0"
         x2="550"
         y1="-785"
         y2="-785"
         stroke="black"
         stroke-dasharray="2"/>
   <text x="-5" y="-785" text-anchor="end" dominant-baseline="middle">1916</text>
   <rect x=" 0"
         y="-780"
         width="500"
         height="20"
         opacity=".5"
         fill="green"/>
   <rect x=" 0"
         y="-780"
         width="187.5"
         height="20"
         opacity=".5"
         fill="yellow"/>
   <rect x=" 0"
         y="-780"
         width="125"
         height="20"
         opacity=".5"
         fill="red"/>
   <text x="50" y="-790" fill="black">1916-11-23 'Frosty'.</text>
   <line x1="0"
         x2="550"
         y1="-815"
         y2="-815"
         stroke="black"
         stroke-dasharray="2"/>
   <text x="-5" y="-815" text-anchor="end" dominant-baseline="middle">1916</text>
   <rect x=" 0"
         y="-810"
         width="500"
         height="20"
         opacity=".5"
         fill="green"/>
   <rect x=" 0"
         y="-810"
         width="250"
         height="20"
         opacity=".5"
         fill="yellow"/>
   <rect x=" 0"
         y="-810"
         width="250"
         height="20"
         opacity=".5"
         fill="red"/>
   <text x="50" y="-820" fill="black">1916-11-29 Bill</text>
   <line x1="0"
         x2="550"
         y1="-845"
         y2="-845"
         stroke="black"
         stroke-dasharray="2"/>
   <text x="-5" y="-845" text-anchor="end" dominant-baseline="middle">1917</text>
   <rect x=" 0"
         y="-840"
         width="500"
         height="20"
         opacity=".5"
         fill="green"/>
   <rect x=" 0"
         y="-840"
         width="291.6666666666667"
         height="20"
         opacity=".5"
         fill="yellow"/>
   <rect x=" 0"
         y="-840"
         width="208.33333333333337"
         height="20"
         opacity=".5"
         fill="red"/>
   <text x="50" y="-850" fill="black">1917-01-05  H.A. Skilling</text>
   <line x1="0"
         x2="550"
         y1="-875"
         y2="-875"
         stroke="black"
         stroke-dasharray="2"/>
   <text x="-5" y="-875" text-anchor="end" dominant-baseline="middle">1917</text>
   <rect x=" 0"
         y="-870"
         width="500"
         height="20"
         opacity=".5"
         fill="green"/>
   <rect x=" 0"
         y="-870"
         width="500"
         height="20"
         opacity=".5"
         fill="yellow"/>
   <rect x=" 0"
         y="-870"
         width="500"
         height="20"
         opacity=".5"
         fill="red"/>
   <text x="50" y="-880" fill="black">1917-01-14 </text>
   <line x1="0"
         x2="550"
         y1="-905"
         y2="-905"
         stroke="black"
         stroke-dasharray="2"/>
   <text x="-5" y="-905" text-anchor="end" dominant-baseline="middle">1917</text>
   <rect x=" 0"
         y="-900"
         width="500"
         height="20"
         opacity=".5"
         fill="green"/>
   <rect x=" 0"
         y="-900"
         width="0"
         height="20"
         opacity=".5"
         fill="yellow"/>
   <rect x=" 0"
         y="-900"
         width="0"
         height="20"
         opacity=".5"
         fill="red"/>
   <text x="50" y="-910" fill="black">1917-01-20 Will</text>
   <rect x=" 0"
         y="-930"
         width="500"
         height="20"
         opacity=".5"
         fill="green"/>
   <rect x=" 0"
         y="-930"
         width="125"
         height="20"
         opacity=".5"
         fill="yellow"/>
   <rect x=" 0"
         y="-930"
         width="0"
         height="20"
         opacity=".5"
         fill="red"/>
   <text x="50" y="-940" fill="black">1917-03-02 Harry Beaumont</text>
   <line x1="0"
         x2="550"
         y1="-965"
         y2="-965"
         stroke="black"
         stroke-dasharray="2"/>
   <text x="-5" y="-965" text-anchor="end" dominant-baseline="middle">1917</text>
   <rect x=" 0"
         y="-960"
         width="500"
         height="20"
         opacity=".5"
         fill="green"/>
   <rect x=" 0"
         y="-960"
         width="500"
         height="20"
         opacity=".5"
         fill="yellow"/>
   <rect x=" 0"
         y="-960"
         width="0"
         height="20"
         opacity=".5"
         fill="red"/>
   <text x="50" y="-970" fill="black">1917-04-26 F.R. Morris</text>
   <rect x=" 0"
         y="-990"
         width="500"
         height="20"
         opacity=".5"
         fill="green"/>
   <rect x=" 0"
         y="-990"
         width="0"
         height="20"
         opacity=".5"
         fill="yellow"/>
   <rect x=" 0"
         y="-990"
         width="0"
         height="20"
         opacity=".5"
         fill="red"/>
   <text x="50" y="-1000" fill="black">1917-04-29 F. Secrett</text>
   <rect x=" 0"
         y="-1020"
         width="500"
         height="20"
         opacity=".5"
         fill="green"/>
   <rect x=" 0"
         y="-1020"
         width="312.5"
         height="20"
         opacity=".5"
         fill="yellow"/>
   <rect x=" 0"
         y="-1020"
         width="187.5"
         height="20"
         opacity=".5"
         fill="red"/>
   <text x="50" y="-1030" fill="black">1917-07-26 Kenneth W. Sharland</text>
   <line x1="0"
         x2="550"
         y1="-1055"
         y2="-1055"
         stroke="black"
         stroke-dasharray="2"/>
   <text x="-5" y="-1055" text-anchor="end" dominant-baseline="middle">1917</text>
   <rect x=" 0"
         y="-1050"
         width="500"
         height="20"
         opacity=".5"
         fill="green"/>
   <rect x=" 0"
         y="-1050"
         width="333.33333333333326"
         height="20"
         opacity=".5"
         fill="yellow"/>
   <rect x=" 0"
         y="-1050"
         width="250"
         height="20"
         opacity=".5"
         fill="red"/>
   <text x="50" y="-1060" fill="black">1917-08-06 Lloyd S.</text>
   <line x1="0"
         x2="550"
         y1="-1085"
         y2="-1085"
         stroke="black"
         stroke-dasharray="2"/>
   <text x="-5" y="-1085" text-anchor="end" dominant-baseline="middle">1917</text>
   <rect x=" 0"
         y="-1080"
         width="500"
         height="20"
         opacity=".5"
         fill="green"/>
   <rect x=" 0"
         y="-1080"
         width="0"
         height="20"
         opacity=".5"
         fill="yellow"/>
   <rect x=" 0"
         y="-1080"
         width="0"
         height="20"
         opacity=".5"
         fill="red"/>
   <text x="50" y="-1090" fill="black">1917-09-01 J.C. Kibblewhite Sgt.</text>
   <line x1="0"
         x2="550"
         y1="-1115"
         y2="-1115"
         stroke="black"
         stroke-dasharray="2"/>
   <text x="-5" y="-1115" text-anchor="end" dominant-baseline="middle">1917</text>
   <rect x=" 0"
         y="-1110"
         width="500"
         height="20"
         opacity=".5"
         fill="green"/>
   <rect x=" 0"
         y="-1110"
         width="125"
         height="20"
         opacity=".5"
         fill="yellow"/>
   <rect x=" 0"
         y="-1110"
         width="125"
         height="20"
         opacity=".5"
         fill="red"/>
   <text x="50" y="-1120" fill="black">1917-09-07  F.J. Board </text>
   <line x1="0"
         x2="550"
         y1="-1145"
         y2="-1145"
         stroke="black"
         stroke-dasharray="2"/>
   <text x="-5" y="-1145" text-anchor="end" dominant-baseline="middle">1917</text>
   <rect x=" 0"
         y="-1140"
         width="500"
         height="20"
         opacity=".5"
         fill="green"/>
   <rect x=" 0"
         y="-1140"
         width="166.66666666666663"
         height="20"
         opacity=".5"
         fill="yellow"/>
   <rect x=" 0"
         y="-1140"
         width="166.66666666666663"
         height="20"
         opacity=".5"
         fill="red"/>
   <text x="50" y="-1150" fill="black">1917-10-16 F.E. Andrews</text>
   <line x1="0"
         x2="550"
         y1="-1175"
         y2="-1175"
         stroke="black"
         stroke-dasharray="2"/>
   <text x="-5" y="-1175" text-anchor="end" dominant-baseline="middle">1917</text>
   <rect x=" 0"
         y="-1170"
         width="500"
         height="20"
         opacity=".5"
         fill="green"/>
   <rect x=" 0"
         y="-1170"
         width="428.57142857142856"
         height="20"
         opacity=".5"
         fill="yellow"/>
   <rect x=" 0"
         y="-1170"
         width="357.14285714285717"
         height="20"
         opacity=".5"
         fill="red"/>
   <text x="50" y="-1180" fill="black">1917-10-19 Len</text>
   <line x1="0"
         x2="550"
         y1="-1205"
         y2="-1205"
         stroke="black"
         stroke-dasharray="2"/>
   <text x="-5" y="-1205" text-anchor="end" dominant-baseline="middle">1917</text>
   <rect x=" 0"
         y="-1200"
         width="500"
         height="20"
         opacity=".5"
         fill="green"/>
   <rect x=" 0"
         y="-1200"
         width="333.33333333333326"
         height="20"
         opacity=".5"
         fill="yellow"/>
   <rect x=" 0"
         y="-1200"
         width="166.66666666666663"
         height="20"
         opacity=".5"
         fill="red"/>
   <text x="50" y="-1210" fill="black">1917-12-23 W. Wiggs</text>
   <rect x=" 0"
         y="-1230"
         width="500"
         height="20"
         opacity=".5"
         fill="green"/>
   <rect x=" 0"
         y="-1230"
         width="400"
         height="20"
         opacity=".5"
         fill="yellow"/>
   <rect x=" 0"
         y="-1230"
         width="0"
         height="20"
         opacity=".5"
         fill="red"/>
   <text x="50" y="-1240" fill="black">1918-04-01 Lloyd M. Staley</text>
   <rect x=" 0"
         y="-1260"
         width="500"
         height="20"
         opacity=".5"
         fill="green"/>
   <rect x=" 0"
         y="-1260"
         width="0"
         height="20"
         opacity=".5"
         fill="yellow"/>
   <rect x=" 0"
         y="-1260"
         width="0"
         height="20"
         opacity=".5"
         fill="red"/>
   <text x="50" y="-1270" fill="black">1918-04-15 J.W. Hyam, Fatty.</text>
   <rect x=" 0"
         y="-1290"
         width="500"
         height="20"
         opacity=".5"
         fill="green"/>
   <rect x=" 0"
         y="-1290"
         width="192.30769230769232"
         height="20"
         opacity=".5"
         fill="yellow"/>
   <rect x=" 0"
         y="-1290"
         width="38.46153846153846"
         height="20"
         opacity=".5"
         fill="red"/>
   <text x="50" y="-1300" fill="black">1918-05-29 Lloyd</text>
   <rect x=" 0"
         y="-1320"
         width="500"
         height="20"
         opacity=".5"
         fill="green"/>
   <rect x=" 0"
         y="-1320"
         width="300"
         height="20"
         opacity=".5"
         fill="yellow"/>
   <rect x=" 0"
         y="-1320"
         width="150"
         height="20"
         opacity=".5"
         fill="red"/>
   <text x="50" y="-1330" fill="black">1918-06-24 Lloyd</text>
   <line x1="0"
         x2="550"
         y1="-1355"
         y2="-1355"
         stroke="black"
         stroke-dasharray="2"/>
   <text x="-5" y="-1355" text-anchor="end" dominant-baseline="middle">1918</text>
   <rect x=" 0"
         y="-1350"
         width="500"
         height="20"
         opacity=".5"
         fill="green"/>
   <rect x=" 0"
         y="-1350"
         width="388.8888888888889"
         height="20"
         opacity=".5"
         fill="yellow"/>
   <rect x=" 0"
         y="-1350"
         width="166.66666666666663"
         height="20"
         opacity=".5"
         fill="red"/>
   <text x="50" y="-1360" fill="black">1918-07-31 Lloyd</text>
   <line x1="0"
         x2="550"
         y1="-1385"
         y2="-1385"
         stroke="black"
         stroke-dasharray="2"/>
   <text x="-5" y="-1385" text-anchor="end" dominant-baseline="middle">1918</text>
   <rect x=" 0"
         y="-1380"
         width="500"
         height="20"
         opacity=".5"
         fill="green"/>
   <rect x=" 0"
         y="-1380"
         width="250"
         height="20"
         opacity=".5"
         fill="yellow"/>
   <rect x=" 0"
         y="-1380"
         width="208.33333333333337"
         height="20"
         opacity=".5"
         fill="red"/>
   <text x="50" y="-1390" fill="black">1918-08-14 Lindsay.</text>
   <line x1="0"
         x2="550"
         y1="-1415"
         y2="-1415"
         stroke="black"
         stroke-dasharray="2"/>
   <text x="-5" y="-1415" text-anchor="end" dominant-baseline="middle">1919</text>
   <rect x=" 0"
         y="-1410"
         width="500"
         height="20"
         opacity=".5"
         fill="green"/>
   <rect x=" 0"
         y="-1410"
         width="0"
         height="20"
         opacity=".5"
         fill="yellow"/>
   <rect x=" 0"
         y="-1410"
         width="0"
         height="20"
         opacity=".5"
         fill="red"/>
   <text x="50" y="-1420" fill="black">1919-08-07  G.W.L.</text>
   <line x1="0"
         x2="550"
         y1="-1445"
         y2="-1445"
         stroke="black"
         stroke-dasharray="2"/>
   <text x="-5" y="-1445" text-anchor="end" dominant-baseline="middle">1920</text>
   <rect x=" 0"
         y="-1440"
         width="500"
         height="20"
         opacity=".5"
         fill="green"/>
   <rect x=" 0"
         y="-1440"
         width="250"
         height="20"
         opacity=".5"
         fill="yellow"/>
   <rect x=" 0"
         y="-1440"
         width="250"
         height="20"
         opacity=".5"
         fill="red"/>
   <text x="50" y="-1450" fill="black">1920-07-21  Chas</text>
   <line x1="0"
         x2="550"
         y1="-1475"
         y2="-1475"
         stroke="black"
         stroke-dasharray="2"/>
   <text x="-5" y="-1475" text-anchor="end" dominant-baseline="middle"/>
   <rect x=" 0"
         y="-1470"
         width="500"
         height="20"
         opacity=".5"
         fill="green"/>
   <rect x=" 0"
         y="-1470"
         width="423.0769230769231"
         height="20"
         opacity=".5"
         fill="yellow"/>
   <rect x=" 0"
         y="-1470"
         width="346.15384615384613"
         height="20"
         opacity=".5"
         fill="red"/>
   <text x="50" y="-1480" fill="black">unknown S. Smith.</text>
   <line x1="0" y1="0" x2="0" y2="-1520" stroke="black"/>
   <line x1="0" y1="0" x2="550" y2="0" stroke="black"/>
   <line x1="0" y1="0" x2="0" y2="10" stroke="black"/>
   <text x="0" y="20" text-anchor="end" dominant-baseline="central">0%</text>
   <line x1="125" y1="0" x2="125" y2="10" stroke="black"/>
   <text x="125" y="20" text-anchor="end" dominant-baseline="central">25%</text>
   <line x1="250" y1="0" x2="250" y2="10" stroke="black"/>
   <text x="250" y="20" text-anchor="end" dominant-baseline="central">50%</text>
   <line x1="375" y1="0" x2="375" y2="10" stroke="black"/>
   <text x="375" y="20" text-anchor="end" dominant-baseline="central">75%</text>
   <line x1="500" y1="0" x2="500" y2="10" stroke="black"/>
   <text x="500" y="20" text-anchor="end" dominant-baseline="central">100%</text>
   <text x="275" y="50" text-anchor="middle" font-size="large">Percentage of Emotive Statements </text>
   <text x="-50"
         y="-760"
         text-anchor="middle"
         writing-mode="tb"
         font-size="large">Year Letter was Written</text>
   <text x="275" y="-1570" text-anchor="middle" font-size="x-large">Percentage of Emotive Statements per Letter Written</text>
</svg>
